<svg width="1032" height="393" viewBox="0 0 1032 393" fill="none" xmlns="http://www.w3.org/2000/svg">
<g clip-path="url(#clip0_111_1105)">
<path d="M173.913 224.9H171.883V213.59H173.913V224.9Z" fill="black"/>
<path d="M175.565 220.69C175.565 218.06 177.146 216.3 179.637 216.3C182.128 216.3 183.699 218.06 183.699 220.69C183.699 223.32 182.118 225.07 179.637 225.07C177.156 225.07 175.565 223.32 175.565 220.69ZM179.637 223.47C180.998 223.47 181.678 222.23 181.678 220.68C181.678 219.13 180.998 217.87 179.637 217.87C178.276 217.87 177.576 219.12 177.576 220.68C177.576 222.24 178.256 223.47 179.637 223.47Z" fill="black"/>
<path d="M184.229 213.59H193.244V215.3H189.752V224.9H187.731V215.3H184.229V213.59Z" fill="black"/>
<path d="M207.18 224.59H194.264V223.17H199.827V220.42H195.685V213.11H197.426V215.42H203.969V213.11H205.7V220.42H201.558V223.17H207.18V224.59ZM203.969 219.02V216.81H197.426V219.02H203.969Z" fill="black"/>
<path d="M212.073 213.11C214.224 213.11 215.864 214.58 215.884 216.66C215.874 218.72 214.224 220.21 212.073 220.21C209.922 220.21 208.251 218.72 208.261 216.66C208.251 214.58 209.922 213.11 212.073 213.11ZM212.073 218.69C213.263 218.69 214.174 217.89 214.184 216.66C214.184 215.42 213.263 214.63 212.073 214.63C210.882 214.63 209.952 215.42 209.972 216.66C209.962 217.89 210.892 218.69 212.073 218.69ZM210.202 221.41H211.933V224.6H219.806V226.01H210.202V221.41ZM219.256 216.3H221.227V217.74H219.256V222.49H217.505V212.17H219.256V216.3Z" fill="black"/>
<path d="M178.727 192.4H200.027C200.027 193.11 200.217 193.77 200.547 194.34H178.587C177.596 194.34 176.786 193.54 176.786 192.54C176.786 186.58 181.618 181.76 187.571 181.76H193.104C195.745 181.76 198.166 182.71 200.037 184.28C200.027 184.41 200.017 184.53 200.017 184.66V187.02C198.396 184.99 195.905 183.69 193.104 183.69H187.571C182.729 183.69 178.797 187.58 178.717 192.4H178.727ZM182.598 171.11C182.598 168.34 184.079 165.79 186.47 164.4C188.872 163.02 191.823 163.02 194.214 164.4C196.615 165.78 198.086 168.34 198.086 171.11C198.086 173.88 196.605 176.43 194.214 177.82C191.823 179.21 188.862 179.2 186.47 177.82C184.079 176.44 182.598 173.88 182.598 171.11ZM190.342 176.92C192.413 176.92 194.334 175.81 195.375 174.02C196.415 172.22 196.415 170.01 195.375 168.21C194.334 166.41 192.423 165.31 190.342 165.31C188.261 165.31 186.35 166.42 185.31 168.21C184.269 170.01 184.269 172.22 185.31 174.02C186.35 175.82 188.261 176.92 190.342 176.92ZM203.899 179.82C203.899 177.15 206.07 174.98 208.741 174.98C211.412 174.98 213.583 177.15 213.583 179.82V182.72C214.654 182.72 215.524 183.59 215.524 184.66V192.4C215.524 193.47 214.654 194.34 213.583 194.34H203.899C202.828 194.34 201.958 193.47 201.958 192.4V184.66C201.958 183.59 202.828 182.72 203.899 182.72V179.82ZM203.899 184.66V192.4H213.583V184.66H203.899ZM208.741 176.92C207.14 176.92 205.84 178.22 205.84 179.82V182.72H211.653V179.82C211.653 178.22 210.352 176.92 208.751 176.92H208.741Z" fill="black"/>
<path d="M488.957 221.73L487.926 223.12C486.305 222.37 485.115 220.87 484.455 219.03C483.814 221.02 482.594 222.65 480.883 223.45L479.822 222C482.163 220.98 483.544 218.28 483.554 215.57V213.31H485.315V215.57C485.305 218.15 486.666 220.75 488.967 221.73H488.957ZM489.977 212.17H491.728V226.31H489.977V212.17Z" fill="black"/>
<path d="M493.809 223.06H506.725V224.5H493.809V223.06ZM506.195 219L505.415 220.45C503.044 219.96 501.103 218.53 500.182 216.63C499.252 218.51 497.311 219.95 494.95 220.45L494.189 219C497.101 218.47 499.242 216.28 499.252 214.11V213.07H501.093V214.11C501.093 216.3 503.224 218.49 506.185 219H506.195Z" fill="black"/>
<path d="M513.619 214.45H509.907V215.78H513.078V217.12H509.907V218.58C511.598 218.56 512.778 218.49 514.159 218.25L514.329 219.61C512.708 219.91 511.358 219.96 509.177 219.96H508.246V213.04H513.629V214.45H513.619ZM510.197 221.21H519.732V226.12H510.197V221.21ZM518.011 224.72V222.59H511.928V224.72H518.011ZM513.699 215.62H515.289V212.41H516.94V220.52H515.289V217.03H513.699V215.62ZM518.081 212.18H519.732V220.63H518.081V212.18Z" fill="black"/>
<path d="M538.211 224.59H525.294V223.17H530.857V220.42H526.715V213.11H528.456V215.42H534.999V213.11H536.73V220.42H532.588V223.17H538.211V224.59ZM534.999 219.02V216.81H528.456V219.02H534.999Z" fill="black"/>
<path d="M543.103 213.11C545.254 213.11 546.895 214.58 546.915 216.66C546.905 218.72 545.254 220.21 543.103 220.21C540.952 220.21 539.281 218.72 539.291 216.66C539.281 214.58 540.952 213.11 543.103 213.11ZM543.103 218.69C544.293 218.69 545.204 217.89 545.214 216.66C545.214 215.42 544.293 214.63 543.103 214.63C541.912 214.63 540.982 215.42 541.002 216.66C540.992 217.89 541.922 218.69 543.103 218.69ZM541.232 221.41H542.963V224.6H550.837V226.01H541.232V221.41ZM550.286 216.3H552.257V217.74H550.286V222.49H548.536V212.17H550.286V216.3Z" fill="black"/>
<path d="M508.256 176.92H503.414C500.743 176.92 498.572 179.09 498.572 181.76C498.572 182.29 498.132 182.73 497.601 182.73C497.071 182.73 496.631 182.29 496.631 181.76C496.631 178.02 499.662 174.99 503.404 174.99H508.487C508.327 175.61 508.246 176.26 508.246 176.93L508.256 176.92ZM501.163 170.63C500.303 169.13 500.303 167.29 501.163 165.79C502.023 164.29 503.624 163.37 505.355 163.37C507.086 163.37 508.687 164.29 509.547 165.79C510.408 167.29 510.408 169.13 509.547 170.63C508.687 172.13 507.086 173.05 505.355 173.05C503.624 173.05 502.023 172.13 501.163 170.63ZM502.844 166.76C502.324 167.66 502.324 168.77 502.844 169.66C503.364 170.56 504.325 171.11 505.355 171.11C506.386 171.11 507.356 170.56 507.866 169.66C508.387 168.76 508.387 167.66 507.866 166.76C507.346 165.86 506.386 165.31 505.355 165.31C504.325 165.31 503.354 165.86 502.844 166.76ZM518.441 184.67C518.491 185.39 518.762 186.06 519.172 186.61H512.468C509.187 186.61 506.516 189.18 506.346 192.42H519.952C519.992 192.47 520.042 192.54 520.082 192.59C520.963 193.71 522.253 194.11 523.434 193.99C523.484 194.11 523.544 194.23 523.614 194.35H506.015C505.115 194.35 504.395 193.62 504.395 192.73C504.395 188.28 508.006 184.67 512.459 184.67H518.441ZM519.352 181.66C518.411 182.33 517.261 182.72 516.01 182.72C512.799 182.72 510.197 180.12 510.197 176.91C510.197 173.7 512.799 171.1 516.01 171.1C519.222 171.1 521.823 173.7 521.823 176.91C521.823 177.92 521.563 178.87 521.113 179.7C520.682 180.49 520.082 181.16 519.362 181.67L519.352 181.66ZM514.079 180.27C515.28 180.96 516.751 180.96 517.951 180.27C519.152 179.58 519.892 178.3 519.892 176.92C519.892 175.54 519.152 174.26 517.951 173.57C516.751 172.88 515.28 172.88 514.079 173.57C512.879 174.26 512.138 175.54 512.138 176.92C512.138 178.3 512.879 179.58 514.079 180.27ZM527.696 178.86C528.066 178.86 528.436 178.89 528.786 178.94C529.767 179.08 530.357 179.94 530.357 180.8V180.88C530.357 181 530.447 181.21 530.727 181.37C530.997 181.53 531.218 181.5 531.328 181.44L531.398 181.4C532.138 180.98 533.179 181.06 533.789 181.83C533.989 182.08 534.169 182.35 534.339 182.63L534.459 182.85C534.619 183.13 534.749 183.42 534.869 183.72C535.24 184.63 534.789 185.57 534.049 186L533.979 186.04C533.869 186.1 533.739 186.28 533.739 186.6C533.739 186.92 533.869 187.1 533.979 187.16L534.049 187.2C534.789 187.62 535.24 188.56 534.869 189.48C534.749 189.77 534.619 190.06 534.459 190.33V190.35L534.329 190.57V190.59C534.149 190.87 533.969 191.13 533.769 191.38C533.159 192.16 532.118 192.24 531.378 191.81L531.308 191.77C531.198 191.7 530.977 191.68 530.707 191.84C530.427 192 530.337 192.21 530.337 192.33V192.41C530.337 193.27 529.747 194.13 528.766 194.27C528.406 194.32 528.036 194.35 527.676 194.35C527.316 194.35 526.936 194.32 526.585 194.27C525.605 194.13 525.015 193.27 525.015 192.41V192.33C525.015 192.21 524.925 192 524.644 191.84C524.374 191.68 524.154 191.71 524.044 191.77L523.974 191.81C523.234 192.23 522.193 192.15 521.583 191.38C521.393 191.13 521.203 190.87 521.043 190.59V190.57L520.903 190.35V190.33C520.743 190.05 520.612 189.77 520.492 189.47C520.122 188.56 520.572 187.62 521.313 187.19L521.383 187.15C521.493 187.09 521.623 186.91 521.623 186.59C521.623 186.27 521.493 186.09 521.383 186.03L521.313 185.99C520.572 185.57 520.122 184.63 520.492 183.71C520.612 183.41 520.753 183.12 520.903 182.84L521.023 182.62C521.193 182.33 521.373 182.06 521.573 181.81C522.183 181.03 523.224 180.95 523.964 181.38L524.034 181.42C524.144 181.49 524.364 181.51 524.634 181.35C524.915 181.19 525.005 180.98 525.005 180.86V180.78C525.005 179.92 525.595 179.06 526.575 178.92C526.936 178.87 527.306 178.84 527.666 178.84L527.696 178.86ZM526.986 180.87C526.986 181.87 526.345 182.64 525.655 183.04C524.955 183.45 523.984 183.61 523.124 183.11L523.094 183.09C522.964 183.25 522.854 183.43 522.743 183.6L522.633 183.79C522.533 183.97 522.443 184.15 522.363 184.34L522.393 184.36C523.264 184.86 523.604 185.79 523.604 186.59C523.604 187.39 523.264 188.33 522.393 188.82L522.363 188.84C522.443 189.03 522.533 189.21 522.633 189.38L522.743 189.58C522.844 189.76 522.964 189.92 523.084 190.09L523.114 190.07C523.974 189.57 524.955 189.74 525.645 190.14C526.335 190.54 526.976 191.31 526.976 192.31V192.35C527.216 192.37 527.456 192.39 527.706 192.39C527.956 192.39 528.196 192.38 528.436 192.35V192.31C528.436 191.31 529.077 190.54 529.767 190.14C530.467 189.73 531.448 189.57 532.298 190.07L532.328 190.09C532.448 189.93 532.568 189.76 532.668 189.58L532.788 189.37C532.888 189.2 532.968 189.01 533.048 188.83L533.018 188.81C532.158 188.31 531.808 187.38 531.808 186.58C531.808 185.78 532.148 184.84 533.018 184.35L533.048 184.33C532.968 184.14 532.878 183.96 532.778 183.79L532.658 183.6C532.548 183.42 532.438 183.25 532.308 183.09L532.278 183.11C531.418 183.61 530.437 183.44 529.747 183.04C529.057 182.64 528.416 181.87 528.416 180.87V180.83C528.176 180.81 527.936 180.79 527.686 180.79C527.436 180.79 527.196 180.8 526.956 180.83V180.87H526.966H526.986ZM530.057 172.4C528.556 173.26 526.715 173.26 525.215 172.4C523.714 171.54 522.793 169.94 522.793 168.21C522.793 166.48 523.714 164.88 525.215 164.02C526.715 163.16 528.556 163.16 530.057 164.02C531.558 164.88 532.478 166.48 532.478 168.21C532.478 169.94 531.558 171.54 530.057 172.4ZM532.718 179.21C531.868 177.84 530.337 176.92 528.606 176.92H523.764C523.764 176.25 523.684 175.6 523.524 174.98H528.606C531.948 174.98 534.729 177.4 535.28 180.58C534.589 179.72 533.659 179.29 532.718 179.21ZM525.115 188.05C524.594 187.15 524.594 186.04 525.115 185.15C525.635 184.25 526.595 183.7 527.626 183.7C528.656 183.7 529.627 184.25 530.137 185.15C530.657 186.05 530.657 187.16 530.137 188.05C529.617 188.95 528.656 189.5 527.626 189.5C526.595 189.5 525.625 188.95 525.115 188.05ZM526.175 170.73C527.076 171.25 528.186 171.25 529.077 170.73C529.977 170.21 530.527 169.25 530.527 168.22C530.527 167.19 529.977 166.22 529.077 165.71C528.176 165.19 527.066 165.19 526.175 165.71C525.275 166.23 524.724 167.19 524.724 168.22C524.724 169.25 525.275 170.22 526.175 170.73ZM527.626 185.64C527.096 185.64 526.655 186.07 526.655 186.61C526.655 187.15 527.086 187.58 527.626 187.58C528.166 187.58 528.596 187.15 528.596 186.61C528.596 186.07 528.166 185.64 527.626 185.64Z" fill="black"/>
<path d="M805.62 215.05H800.618V213.67H807.391C807.391 217.87 805.761 221.44 800.818 223.79L799.908 222.4C803.61 220.64 805.32 218.26 805.63 215.05H805.62ZM811.603 226.29H809.853V212.18H811.603V226.29Z" fill="black"/>
<path d="M826.551 221.21H813.634V219.81H819.237V218.63H815.275V214.89H823.219V213.84H815.235V212.48H824.95V216.16H816.996V217.29H825.23V218.64H820.948V219.82H826.541V221.22L826.551 221.21ZM815.075 222.1H825.03V226.2H823.279V223.48H815.075V222.1Z" fill="black"/>
<path d="M840.367 219.27H834.785V220.34H838.766V223.8H830.733V224.84H839.157V226.17H829.032V222.56H837.056V221.65H829.012V220.34H833.044V219.27H827.501V217.89H840.367V219.27ZM829.112 212.6H838.716V217H829.112V212.6ZM836.986 215.64V213.96H830.823V215.64H836.986Z" fill="black"/>
<path d="M858.056 224.59H845.14V223.17H850.702V220.42H846.56V213.11H848.301V215.42H854.844V213.11H856.575V220.42H852.433V223.17H858.056V224.59ZM854.844 219.02V216.81H848.301V219.02H854.844Z" fill="black"/>
<path d="M862.948 213.11C865.099 213.11 866.74 214.58 866.76 216.66C866.75 218.72 865.099 220.21 862.948 220.21C860.797 220.21 859.126 218.72 859.136 216.66C859.126 214.58 860.797 213.11 862.948 213.11ZM862.948 218.69C864.139 218.69 865.049 217.89 865.059 216.66C865.059 215.42 864.139 214.63 862.948 214.63C861.758 214.63 860.827 215.42 860.847 216.66C860.837 217.89 861.768 218.69 862.948 218.69ZM861.077 221.41H862.808V224.6H870.682V226.01H861.077V221.41ZM870.132 216.3H872.103V217.74H870.132V222.49H868.381V212.17H870.132V216.3Z" fill="black"/>
<path d="M837.556 163.37C838.326 163.37 839.067 163.68 839.607 164.22L846.61 171.23C847.151 171.77 847.461 172.51 847.461 173.28V190.46C847.461 192.59 845.72 194.33 843.589 194.33H828.101C825.97 194.33 824.229 192.59 824.229 190.46V167.23C824.229 165.09 825.97 163.36 828.101 163.36H837.556V163.37ZM845.53 190.47V174.99H838.756C837.156 174.99 835.855 173.69 835.855 172.09V165.32H828.111C827.041 165.32 826.17 166.18 826.17 167.26V190.49C826.17 191.56 827.041 192.43 828.111 192.43H843.599C844.669 192.43 845.54 191.56 845.54 190.49L845.53 190.47ZM832.944 167.24C833.474 167.24 833.914 167.68 833.914 168.21C833.914 168.74 833.474 169.18 832.944 169.18H829.072C828.542 169.18 828.101 168.74 828.101 168.21C828.101 167.68 828.542 167.24 829.072 167.24H832.944ZM832.944 171.11C833.474 171.11 833.914 171.55 833.914 172.08C833.914 172.61 833.474 173.05 832.944 173.05H829.072C828.542 173.05 828.101 172.61 828.101 172.08C828.101 171.55 828.542 171.11 829.072 171.11H832.944ZM829.562 188.53H829.062C828.532 188.53 828.091 188.09 828.091 187.56C828.091 187.03 828.532 186.59 829.062 186.59H829.562C829.982 186.59 830.362 186.31 830.493 185.9L831.393 182.91C831.603 182.22 832.223 181.75 832.944 181.75C833.664 181.75 834.284 182.22 834.494 182.9L835.255 185.45C835.685 184.95 836.315 184.66 836.976 184.66C837.836 184.66 838.626 185.14 839.007 185.91L839.347 186.59H842.628C843.159 186.59 843.599 187.03 843.599 187.56C843.599 188.09 843.159 188.53 842.628 188.53H838.756C838.396 188.53 838.056 188.32 837.886 188L837.276 186.78C837.226 186.67 837.106 186.6 836.976 186.6C836.876 186.6 836.766 186.65 836.706 186.73L835.645 188.15C835.425 188.45 835.055 188.59 834.705 188.53C834.344 188.46 834.054 188.2 833.944 187.85L832.934 184.49L832.343 186.47C831.973 187.7 830.843 188.54 829.562 188.54V188.53ZM845.5 173.05C845.46 172.88 845.37 172.73 845.25 172.6L838.236 165.59C838.116 165.46 837.956 165.38 837.786 165.34V172.08C837.786 172.61 838.226 173.05 838.756 173.05H845.5Z" fill="black"/>
<path d="M39.0389 188.66V196.62C39.0389 196.85 39.149 197.12 39.3891 197.36C40.6797 198.68 41.4801 200.48 41.4801 202.48C41.4801 206.52 38.1985 209.79 34.1666 209.79C30.1346 209.79 26.853 206.51 26.853 202.48C26.853 200.49 27.6534 198.68 28.944 197.36C29.1742 197.12 29.2942 196.86 29.2942 196.62V188.66C29.2942 185.97 31.4753 183.78 34.1766 183.78C36.8779 183.78 39.0589 185.96 39.0589 188.66H39.0389ZM30.915 196.62C30.915 197.38 30.5548 198.03 30.1046 198.49C29.0941 199.52 28.4838 200.92 28.4838 202.47C28.4838 205.61 31.025 208.16 34.1766 208.16C37.3281 208.16 39.8693 205.62 39.8693 202.47C39.8693 200.92 39.249 199.51 38.2485 198.49C37.7883 198.02 37.4382 197.37 37.4382 196.62V188.66C37.4382 186.87 35.9774 185.41 34.1866 185.41C32.3957 185.41 30.935 186.87 30.935 188.66V196.62H30.915ZM34.1666 205.73C32.3757 205.73 30.915 204.27 30.915 202.48C30.915 200.97 31.9555 199.69 33.3562 199.33V188.67C33.3562 188.22 33.7264 187.86 34.1666 187.86C34.6068 187.86 34.977 188.23 34.977 188.67V199.33C36.3776 199.69 37.4181 200.96 37.4181 202.48C37.4181 204.27 35.9574 205.73 34.1666 205.73ZM34.1666 204.11C35.067 204.11 35.7874 203.38 35.7874 202.49C35.7874 201.6 35.057 200.87 34.1666 200.87C33.2761 200.87 32.5458 201.6 32.5458 202.49C32.5458 203.38 33.2761 204.11 34.1666 204.11ZM43.5411 188.67C42.9608 187.66 42.9608 186.43 43.5411 185.42C44.1214 184.41 45.1919 183.8 46.3525 183.8C47.513 183.8 48.5836 184.42 49.1638 185.42C49.7441 186.43 49.7441 187.66 49.1638 188.67C48.5836 189.68 47.513 190.29 46.3525 190.29C45.1919 190.29 44.1214 189.67 43.5411 188.67ZM44.7317 187.05C44.7317 187.95 45.462 188.67 46.3525 188.67C47.2429 188.67 47.9733 187.94 47.9733 187.05C47.9733 186.16 47.2429 185.43 46.3525 185.43C45.462 185.43 44.7317 186.16 44.7317 187.05Z" fill="black"/>
<path d="M36.2374 232.03C56.1127 232.03 72.2249 215.926 72.2249 196.06C72.2249 176.194 56.1127 160.09 36.2374 160.09C16.3621 160.09 0.25 176.194 0.25 196.06C0.25 215.926 16.3621 232.03 36.2374 232.03Z" stroke="black" stroke-width="0.5" stroke-miterlimit="10"/>
<path d="M194.884 25.34C195.695 24.99 196.615 24.99 197.426 25.34L206.4 29.15C207.52 29.62 208.351 30.72 208.351 32.05C208.321 37.09 206.25 46.3 197.496 50.49C196.645 50.9 195.665 50.9 194.814 50.49C186.06 46.3 183.989 37.08 183.959 32.05C183.959 30.72 184.789 29.62 185.91 29.15L194.884 25.34ZM196.785 26.84C196.375 26.67 195.925 26.67 195.515 26.84L186.54 30.65C185.97 30.89 185.58 31.43 185.58 32.05C185.61 36.82 187.581 45.24 195.505 49.04C195.905 49.23 196.375 49.23 196.775 49.04C204.709 45.25 206.68 36.83 206.71 32.05C206.71 31.44 206.33 30.89 205.75 30.65L196.775 26.84H196.785Z" fill="black"/>
<path d="M196.155 72.19C216.03 72.19 232.142 56.0857 232.142 36.22C232.142 16.3543 216.03 0.25 196.155 0.25C176.28 0.25 160.167 16.3543 160.167 36.22C160.167 56.0857 176.28 72.19 196.155 72.19Z" stroke="black" stroke-width="0.5" stroke-miterlimit="10"/>
<path d="M507.426 343.63C509.667 343.63 511.488 345.45 511.488 347.69V350.94C511.488 353.18 509.667 355 507.426 355H505.805C503.564 355 501.743 353.18 501.743 350.94V347.69C501.743 345.45 503.564 343.63 505.805 343.63H507.426ZM506.616 359.07V368.01H509.057C509.507 368.01 509.867 368.38 509.867 368.82C509.867 369.26 509.497 369.63 509.057 369.63H502.554C502.103 369.63 501.743 369.26 501.743 368.82C501.743 368.38 502.113 368.01 502.554 368.01H504.995V360.19L503.624 360.65C503.204 360.79 502.744 360.56 502.594 360.14C502.454 359.72 502.684 359.26 503.104 359.11L505.545 358.3C505.795 358.22 506.065 358.26 506.275 358.41C506.485 358.56 506.606 358.81 506.606 359.07H506.616ZM503.364 350.95C503.364 352.3 504.454 353.39 505.805 353.39H507.426C508.777 353.39 509.867 352.3 509.867 350.95V347.7C509.867 346.35 508.777 345.26 507.426 345.26H505.805C504.454 345.26 503.364 346.35 503.364 347.7V350.95ZM515.56 358.26H517.181C519.422 358.26 521.243 360.08 521.243 362.32V365.57C521.243 367.81 519.422 369.63 517.181 369.63H515.56C513.319 369.63 511.498 367.81 511.498 365.57V362.32C511.498 360.08 513.319 358.26 515.56 358.26ZM518.001 344.45V353.39H520.442C520.892 353.39 521.253 353.76 521.253 354.2C521.253 354.64 520.882 355.01 520.442 355.01H513.939C513.489 355.01 513.129 354.64 513.129 354.2C513.129 353.76 513.499 353.39 513.939 353.39H516.38V345.57L515.01 346.03C514.589 346.17 514.129 345.94 513.979 345.52C513.839 345.1 514.069 344.64 514.489 344.49L516.931 343.68C517.181 343.6 517.451 343.64 517.661 343.79C517.871 343.94 517.991 344.19 517.991 344.45H518.001ZM513.119 362.33V365.58C513.119 366.93 514.209 368.02 515.56 368.02H517.181C518.531 368.02 519.622 366.93 519.622 365.58V362.33C519.622 360.98 518.531 359.89 517.181 359.89H515.56C514.209 359.89 513.119 360.98 513.119 362.33ZM528.566 353.39C530.807 353.39 532.628 355.21 532.628 357.45V359.89C533.529 359.89 534.249 360.62 534.249 361.51V368.01C534.249 368.91 533.519 369.63 532.628 369.63H524.504C523.604 369.63 522.883 368.9 522.883 368.01V361.51C522.883 360.61 523.614 359.89 524.504 359.89V357.45C524.504 355.21 526.325 353.39 528.566 353.39ZM524.504 368.01H532.628V361.51H524.504V368.01ZM526.125 357.45V359.89H531.007V357.45C531.007 356.1 529.917 355.01 528.566 355.01C527.216 355.01 526.125 356.1 526.125 357.45Z" fill="black"/>
<path d="M516 391.88C535.875 391.88 551.988 375.776 551.988 355.91C551.988 336.044 535.875 319.94 516 319.94C496.125 319.94 480.013 336.044 480.013 355.91C480.013 375.776 496.125 391.88 516 391.88Z" stroke="black" stroke-width="0.5" stroke-miterlimit="10"/>
<path d="M231.913 40.23C301.616 56.14 353.982 117.58 356.013 191.59" stroke="black" stroke-width="0.75" stroke-miterlimit="10"/>
<path d="M353.161 189.54L355.963 190.66L358.714 189.42L356.083 196.06L353.161 189.54Z" fill="black"/>
<path d="M40.2495 160.32C53.8661 100.74 100.789 53.84 160.398 40.23" stroke="black" stroke-width="0.75" stroke-miterlimit="10"/>
<path d="M480.243 351.89C409.138 335.66 356.083 272.05 356.083 196.06" stroke="black" stroke-width="0.75" stroke-miterlimit="10"/>
<path d="M675.857 200.54C673.816 274.54 621.461 335.98 551.757 351.9" stroke="black" stroke-width="0.75" stroke-miterlimit="10"/>
<path d="M672.996 202.58L675.807 201.46L678.559 202.7L675.918 196.06L672.996 202.58Z" fill="black"/>
<path d="M871.603 40.23C931.211 53.84 978.144 100.74 991.751 160.33" stroke="black" stroke-width="0.75" stroke-miterlimit="10"/>
<path d="M675.917 196.06C675.917 120.07 728.973 56.46 800.078 40.23" stroke="black" stroke-width="0.75" stroke-miterlimit="10"/>
<path d="M823.209 45.3199H841.298C841.818 45.8899 842.418 46.4299 843.099 46.9199C843.009 46.9399 842.918 46.9499 842.828 46.9499H823.089C822.258 46.9499 821.578 46.2699 821.578 45.4399C821.578 40.4399 825.63 36.3899 830.632 36.3899H835.275C836.165 36.3899 837.036 36.5199 837.856 36.7599C837.886 37.3199 837.956 37.9199 838.066 38.5499C837.206 38.1999 836.265 38.0099 835.275 38.0099H830.632C826.571 38.0099 823.269 41.2799 823.199 45.3199H823.209ZM826.46 27.4399C826.46 25.1199 827.701 22.9699 829.712 21.8099C831.723 20.6499 834.204 20.6499 836.215 21.8099C838.226 22.9699 839.467 25.1199 839.467 27.4399C839.467 29.7599 838.226 31.9099 836.215 33.0699C834.204 34.2299 831.723 34.2299 829.712 33.0699C827.701 31.9099 826.46 29.7599 826.46 27.4399ZM832.964 32.3199C834.704 32.3199 836.315 31.3899 837.186 29.8799C838.056 28.3699 838.056 26.5099 837.186 24.9999C836.315 23.4899 834.704 22.5599 832.964 22.5599C831.223 22.5599 829.612 23.4899 828.742 24.9999C827.871 26.5099 827.871 28.3699 828.742 29.8799C829.612 31.3899 831.223 32.3199 832.964 32.3199ZM847.241 32.4099L853.333 34.8499C853.794 35.0399 854.094 35.4799 854.094 35.9799C854.094 39.1899 852.773 44.5499 847.241 46.8599C846.94 46.9899 846.6 46.9899 846.3 46.8599C840.777 44.5499 839.457 39.1999 839.457 35.9799C839.457 35.4799 839.757 35.0399 840.227 34.8499L846.32 32.4099C846.61 32.2899 846.93 32.2899 847.221 32.4099H847.241ZM841.098 36.2499C841.168 38.9399 842.248 42.8299 845.97 44.8799V34.2999L841.098 36.2499ZM852.473 36.2499L847.591 34.2999V44.8799C851.323 42.8199 852.393 38.9299 852.463 36.2499H852.473Z" fill="black"/>
<path d="M835.845 72.19C855.72 72.19 871.832 56.0857 871.832 36.22C871.832 16.3543 855.72 0.25 835.845 0.25C815.97 0.25 799.857 16.3543 799.857 36.22C799.857 56.0857 815.97 72.19 835.845 72.19Z" stroke="black" stroke-width="0.5" stroke-miterlimit="10"/>
<path d="M987.638 202.76L987.989 203.2L988.499 202.99C988.989 202.79 989.549 202.79 990.039 202.99L990.55 203.2L990.89 202.76C991.22 202.34 991.69 202.06 992.221 201.99L992.771 201.91L992.851 201.36L994.462 201.58L994.342 202.44C994.272 202.98 993.841 203.4 993.301 203.48L992.521 203.59V208.97C992.521 209.27 992.351 209.54 992.09 209.69C991.83 209.83 991.51 209.82 991.26 209.65L989.269 208.32L987.278 209.65C987.028 209.82 986.718 209.83 986.448 209.69C986.178 209.55 986.018 209.27 986.018 208.97V203.59L985.237 203.48C984.697 203.41 984.277 202.98 984.197 202.44L984.077 201.58C984.057 201.48 984.007 201.38 983.927 201.32L983.236 200.79C982.806 200.45 982.646 199.88 982.856 199.37L983.176 198.57C983.216 198.47 983.216 198.36 983.176 198.27L982.856 197.47C982.646 196.97 982.806 196.38 983.236 196.05L983.927 195.52L984.927 196.81L984.487 197.15L984.697 197.66C984.897 198.15 984.897 198.71 984.697 199.2L984.487 199.71L984.927 200.05C985.347 200.38 985.627 200.85 985.697 201.38L985.777 201.93L986.328 202.01C986.858 202.08 987.328 202.36 987.658 202.78L987.638 202.76ZM983.917 195.5C983.997 195.44 984.057 195.34 984.067 195.24L984.187 194.38C984.257 193.84 984.687 193.42 985.227 193.34L986.088 193.22C986.188 193.2 986.288 193.15 986.348 193.07L986.878 192.38C987.218 191.95 987.788 191.79 988.299 192L989.099 192.33C989.199 192.37 989.309 192.37 989.399 192.33L990.21 192.01C990.71 191.8 991.3 191.96 991.63 192.39L992.161 193.08C992.221 193.16 992.321 193.22 992.421 193.23L993.281 193.35C993.821 193.42 994.242 193.85 994.322 194.39L994.442 195.25C994.452 195.35 994.512 195.45 994.592 195.51L995.282 196.04C995.712 196.38 995.872 196.95 995.662 197.46L995.332 198.26C995.292 198.36 995.292 198.47 995.332 198.56L995.652 199.36C995.862 199.86 995.702 200.45 995.272 200.78L994.582 201.31C994.502 201.37 994.442 201.47 994.432 201.57L992.821 201.35C992.891 200.82 993.171 200.35 993.591 200.02L994.031 199.68L993.821 199.17C993.621 198.68 993.621 198.12 993.821 197.63L994.031 197.12L993.591 196.78C993.171 196.45 992.891 195.98 992.821 195.45L992.741 194.9L992.191 194.82C991.66 194.75 991.19 194.47 990.86 194.05L990.52 193.61L990.01 193.82C989.519 194.02 988.959 194.02 988.469 193.82L987.958 193.61L987.618 194.05C987.288 194.47 986.818 194.75 986.288 194.82L985.737 194.9L985.657 195.45C985.587 195.98 985.307 196.45 984.887 196.78L983.886 195.5H983.917ZM990.89 204.89C990.67 204.93 990.44 204.91 990.22 204.82L989.419 204.49C989.319 204.45 989.209 204.45 989.119 204.49L988.319 204.82C988.099 204.91 987.868 204.93 987.648 204.89V207.45L988.819 206.67C989.089 206.49 989.449 206.49 989.719 206.67L990.89 207.45V204.89ZM1007.15 193.54H1001.46C1000.1 193.54 999.014 192.45 999.014 191.1V185.41H992.511C991.61 185.41 990.89 186.14 990.89 187.03V190.28C990.46 190.25 990.019 190.31 989.599 190.48C989.469 190.53 989.339 190.6 989.269 190.63V187.02C989.269 185.23 990.73 183.77 992.521 183.77H1000.45C1001.1 183.77 1001.72 184.03 1002.18 184.49L1008.06 190.38C1008.52 190.84 1008.78 191.46 1008.78 192.1V206.53C1008.78 208.32 1007.32 209.78 1005.53 209.78H994.011C994.101 209.52 994.151 209.25 994.151 208.97V208.16H1005.54C1006.44 208.16 1007.16 207.43 1007.16 206.54V193.54H1007.15ZM1006.91 191.54L1001.01 185.65C1000.91 185.54 1000.78 185.47 1000.63 185.44V191.1C1000.63 191.55 1001 191.91 1001.45 191.91H1007.11C1007.07 191.77 1007 191.64 1006.9 191.53L1006.91 191.54Z" fill="black"/>
<path d="M995.762 232.03C1015.64 232.03 1031.75 215.926 1031.75 196.06C1031.75 176.194 1015.64 160.09 995.762 160.09C975.887 160.09 959.775 176.194 959.775 196.06C959.775 215.926 975.887 232.03 995.762 232.03Z" stroke="black" stroke-width="0.5" stroke-miterlimit="10"/>
<path d="M196.155 281.98C243.63 281.98 282.117 243.512 282.117 196.06C282.117 148.608 243.63 110.14 196.155 110.14C148.68 110.14 110.193 148.608 110.193 196.06C110.193 243.512 148.68 281.98 196.155 281.98Z" stroke="black" stroke-width="0.5" stroke-miterlimit="10"/>
<path d="M516 281.98C563.475 281.98 601.961 243.512 601.961 196.06C601.961 148.608 563.475 110.14 516 110.14C468.524 110.14 430.038 148.608 430.038 196.06C430.038 243.512 468.524 281.98 516 281.98Z" stroke="black" stroke-width="0.5" stroke-miterlimit="10"/>
<path d="M835.845 281.98C883.32 281.98 921.807 243.512 921.807 196.06C921.807 148.608 883.32 110.14 835.845 110.14C788.37 110.14 749.883 148.608 749.883 196.06C749.883 243.512 788.37 281.98 835.845 281.98Z" stroke="black" stroke-width="0.5" stroke-miterlimit="10"/>
</g>
<defs>
<clipPath id="clip0_111_1105">
<rect width="1032" height="392.12" fill="white"/>
</clipPath>
</defs>
</svg>
