<svg width="16" height="17" viewBox="0 0 16 17" fill="none" xmlns="http://www.w3.org/2000/svg">
<path d="M15.125 14.0781C15.5469 14.5469 15.5469 15.25 15.125 15.6719C14.6562 16.1406 13.9531 16.1406 13.5312 15.6719L8 10.0938L2.42188 15.6719C1.95312 16.1406 1.25 16.1406 0.828125 15.6719C0.359375 15.25 0.359375 14.5469 0.828125 14.0781L6.40625 8.5L0.828125 2.92188C0.359375 2.45312 0.359375 1.75 0.828125 1.32812C1.25 0.859375 1.95312 0.859375 2.375 1.32812L8 6.95312L13.5781 1.375C14 0.90625 14.7031 0.90625 15.125 1.375C15.5938 1.79688 15.5938 2.5 15.125 2.96875L9.54688 8.5L15.125 14.0781Z" fill="black"/>
</svg>
