<svg width="51" height="51" viewBox="0 0 51 51" fill="none" xmlns="http://www.w3.org/2000/svg">
<path d="M24.7305 33.4531C23.7539 34.4297 23.9492 34.2344 23.5586 35.6992C23.168 37.0664 22.0938 38.1406 20.7266 38.5312C20.1406 38.7266 19.9453 38.7266 19.75 38.8242V48.6875C19.75 49.2734 19.457 49.7617 18.9688 50.0547C18.6758 50.25 18.3828 50.25 18.1875 50.25C17.8945 50.25 17.6992 50.25 17.4062 50.1523L13.5 48.1016L9.49609 50.1523C9.00781 50.3477 8.42188 50.3477 7.93359 50.0547C7.44531 49.7617 7.15234 49.2734 7.15234 48.6875V38.8242C6.95703 38.7266 6.76172 38.6289 6.17578 38.4336C4.80859 38.1406 3.73438 36.9688 3.34375 35.6016C2.95312 34.2344 3.14844 34.4297 2.17188 33.4531C1.09766 32.3789 0.707031 30.9141 1.09766 29.4492C1.39062 28.1797 1.48828 28.668 1.09766 27.3984C0.707031 25.9336 1.09766 24.4688 2.17188 23.3945C3.05078 22.418 3.05078 22.6133 3.34375 21.2461C3.73438 19.8789 4.80859 18.707 6.17578 18.4141C7.54297 18.0234 7.34766 18.1211 8.32422 17.1445C9.30078 16.0703 10.8633 15.6797 12.2305 16.0703C13.5977 16.4609 13.3047 16.4609 14.6719 16.0703C16.0391 15.6797 17.6016 16.0703 18.5781 17.1445C19.5547 18.1211 19.3594 18.0234 20.7266 18.4141C22.0938 18.707 23.168 19.8789 23.5586 21.2461C23.8516 22.6133 23.8516 22.418 24.7305 23.3945C25.8047 24.4688 26.1953 25.9336 25.8047 27.3984C25.4141 28.668 25.5117 28.1797 25.707 29.4492C26.0977 30.9141 25.707 32.3789 24.7305 33.4531ZM16.625 46.2461V40.7773C15.9414 40.9727 15.2578 40.9727 14.6719 40.7773C13.3047 40.3867 13.5977 40.3867 12.2305 40.7773C11.6445 40.9727 10.9609 40.9727 10.2773 40.7773V46.2461L12.7188 44.9766C13.207 44.7812 13.6953 44.7812 14.1836 44.9766L16.625 46.2461ZM22.6797 29.8398C22.2891 28.5703 22.2891 28.2773 22.6797 27.0078C22.875 26.2266 22.9727 26.0312 22.2891 25.3477C21.2148 24.1758 21.0195 23.9805 20.6289 22.418C20.4336 21.6367 20.3359 21.5391 19.5547 21.2461C17.9922 20.8555 17.6992 20.7578 16.625 19.5859C16.0391 19 15.9414 18.9023 15.1602 19.1953C13.5977 19.5859 13.3047 19.5859 11.7422 19.1953C10.9609 18.9023 10.8633 19 10.2773 19.5859C9.20312 20.7578 8.91016 20.8555 7.34766 21.2461C6.56641 21.5391 6.46875 21.6367 6.27344 22.418C5.88281 23.9805 5.6875 24.1758 4.61328 25.3477C3.92969 26.0312 4.02734 26.2266 4.22266 27.0078C4.61328 28.2773 4.61328 28.5703 4.22266 29.8398C4.02734 30.6211 3.92969 30.8164 4.61328 31.5C5.78516 32.6719 5.88281 32.8672 6.37109 34.7227C6.56641 35.3086 6.95703 35.4062 7.34766 35.5039C8.91016 35.9922 9.20312 36.0898 10.2773 37.2617C10.8633 37.8477 10.9609 37.8477 11.7422 37.6523C13.3047 37.2617 13.5977 37.2617 15.1602 37.6523C15.9414 37.8477 16.0391 37.8477 16.625 37.2617C17.6992 36.0898 17.9922 35.9922 19.5547 35.5039C19.9453 35.4062 20.4336 35.3086 20.5312 34.7227C21.0195 32.8672 21.1172 32.6719 22.2891 31.5C22.9727 30.8164 22.875 30.6211 22.6797 29.8398ZM49.1445 12.5547C50.3164 13.7266 51 15.2891 50.9023 16.9492V44C50.9023 47.5156 48.0703 50.25 44.6523 50.25H24.4375C23.5586 50.25 22.875 49.5664 22.875 48.6875C22.875 47.9062 23.5586 47.125 24.4375 47.125H44.75C46.4102 47.125 47.875 45.7578 47.875 44V19H36.9375C34.3008 19 32.25 16.9492 32.25 14.3125V3.375H19.75C17.9922 3.375 16.625 4.83984 16.625 6.5V11.1875C16.625 12.0664 15.8438 12.75 15.0625 12.75C14.1836 12.75 13.5 12.0664 13.5 11.1875L13.4023 6.5C13.4023 3.08203 16.1367 0.25 19.6523 0.25H34.3008C35.9609 0.25 37.5234 0.933594 38.6953 2.10547L49.1445 12.5547ZM36.9375 15.875H47.582C47.4844 15.4844 47.2891 15.0938 46.8984 14.7031L36.5469 4.35156C36.1562 3.96094 35.7656 3.76562 35.375 3.66797V14.3125C35.375 15.1914 36.0586 15.875 36.9375 15.875Z" fill="black"/>
</svg>
