<svg width="44" height="51" viewBox="0 0 44 51" fill="none" xmlns="http://www.w3.org/2000/svg">
<path d="M22 25.25C15.0664 25.25 9.5 19.6836 9.5 12.75C9.5 5.91406 15.0664 0.25 22 0.25C28.8359 0.25 34.5 5.91406 34.5 12.75C34.5 19.6836 28.8359 25.25 22 25.25ZM22 3.375C16.8242 3.375 12.625 7.67188 12.625 12.75C12.625 17.9258 16.8242 22.125 22 22.125C27.0781 22.125 31.375 17.9258 31.375 12.75C31.375 7.67188 27.0781 3.375 22 3.375ZM26.8828 29.9375C36.2578 29.9375 43.875 37.5547 43.875 46.9297C43.875 48.7852 42.3125 50.25 40.457 50.25H3.44531C1.58984 50.25 0.125 48.7852 0.125 46.9297C0.125 37.5547 7.64453 29.9375 17.0195 29.9375H26.8828ZM40.457 47.125C40.5547 47.125 40.75 47.0273 40.75 46.9297C40.75 39.3125 34.5 33.0625 26.8828 33.0625H17.0195C9.40234 33.0625 3.25 39.3125 3.25 46.9297C3.25 47.0273 3.34766 47.125 3.44531 47.125H40.457Z" fill="black"/>
</svg>
