<svg width="54" height="43" viewBox="0 0 54 43" fill="none" xmlns="http://www.w3.org/2000/svg">
<path d="M38.5312 13.3125C39.0938 12.6562 40.0312 12.5625 40.6875 13.125C41.25 13.6875 41.4375 14.625 40.875 15.1875L31.7812 26.4375C32.5312 27.4688 33 28.6875 33 30C33 33.375 30.2812 36 27 36C23.625 36 21 33.375 21 30C21 26.7188 23.625 24 27 24C27.8438 24 28.6875 24.2812 29.4375 24.5625L38.5312 13.3125ZM27 33C28.5938 33 30 31.6875 30 30C30 28.4062 28.5938 27.0938 27 27.0938C25.3125 27.0938 24 28.4062 24 30C24 31.6875 25.3125 33 27 33ZM27 0C41.9062 0 54 12.0938 54 27C54 31.9688 52.5938 36.6562 50.3438 40.5938C49.7812 41.5312 48.75 42.0938 47.7188 42.0938H6.1875C5.15625 42.0938 4.125 41.5312 3.65625 40.5938C1.3125 36.6562 0 31.9688 0 27C0 12.0938 12.0938 0 27 0ZM47.7188 39C49.875 35.4375 51 31.3125 51 27C51 13.7812 40.2188 3 27 3C13.6875 3 3 13.7812 3 27C3 31.3125 4.125 35.4375 6.1875 39H47.7188Z" fill="black"/>
</svg>
