<svg width="58" height="51" viewBox="0 0 58 51" fill="none" xmlns="http://www.w3.org/2000/svg">
<path d="M50.875 0.25C54.293 0.25 57.125 3.08203 57.125 6.5V34.625C57.125 38.1406 54.293 40.875 50.875 40.875H36.2266L38.082 47.125H43.0625C43.8438 47.125 44.625 47.9062 44.625 48.6875C44.625 49.5664 43.8438 50.25 43.0625 50.25H14.9375C14.0586 50.25 13.375 49.5664 13.375 48.6875C13.375 47.9062 14.0586 47.125 14.9375 47.125H19.8203L21.6758 40.875H7.125C3.60938 40.875 0.875 38.1406 0.875 34.625V6.5C0.875 3.08203 3.60938 0.25 7.125 0.25H50.875ZM23.043 47.125H34.8594L32.9062 40.875H24.9961L23.043 47.125ZM54 34.625V28.375H4V34.625C4 36.3828 5.36719 37.75 7.125 37.75H50.875C52.5352 37.75 54 36.3828 54 34.625ZM54 25.25V6.5C54 4.83984 52.5352 3.375 50.875 3.375H7.125C5.36719 3.375 4 4.83984 4 6.5V25.25H54Z" fill="black"/>
</svg>
