<svg width="60" height="48" viewBox="0 0 60 48" fill="none" xmlns="http://www.w3.org/2000/svg">
<path d="M25.5 18H4.40625C3.65625 18 3 17.3438 3 16.5C3 15.75 3.65625 15 4.5 15H25.5C26.25 15 27 15.75 27 16.5C27 17.3438 26.25 18 25.5 18ZM58.5 36C59.25 36 60 36.75 60 37.5C60 38.3438 59.25 39 58.5 39H54C54 43.9688 49.875 48 45 48C40.0312 48 36 43.9688 36 39H24C24 44.0625 19.9688 48 15 48C9.9375 48 6 44.0625 6 39V24H1.40625C0.65625 24 0 23.3438 0 22.5C0 21.75 0.65625 21 1.5 21H22.5C23.25 21 24 21.75 24 22.5C24 23.3438 23.25 24 22.5 24H9V32.3438C10.5938 30.9375 12.6562 30 15 30C18.8438 30 22.125 32.5312 23.4375 36H36.4688C37.6875 32.5312 41.0625 30 45 30C48.8438 30 52.2188 32.5312 53.4375 36H54V24H39V27C39 27.8438 38.25 28.5 37.5 28.5C36.6562 28.5 36 27.8438 36 27V6C36 4.40625 34.5938 3 33 3H12C10.3125 3 9 4.40625 9 6V9H22.5C23.25 9 24 9.75 24 10.5C24 11.3438 23.25 12 22.4062 12H1.40625C0.65625 12 0 11.3438 0 10.5C0 9.75 0.65625 9 1.40625 9H6V6C6 2.71875 8.625 0 12 0H33C36.2812 0 39 2.71875 39 6V9H45.0938C46.4062 9 47.625 9.65625 48.4688 10.5938L55.125 18.375C56.3438 19.7812 57 21.4688 57 23.25V36H58.5ZM39 21H53.3438C53.25 20.8125 53.0625 20.5312 52.875 20.3438L46.2188 12.5625C45.9375 12.2812 45.4688 12 45.0938 12H39V21ZM15 45C18.2812 45 21 42.375 21 39C21 35.7188 18.2812 33 15 33C11.625 33 9 35.7188 9 39C9 42.375 11.625 45 15 45ZM45 45C48.2812 45 51 42.375 51 39C51 35.7188 48.2812 33 45 33C41.625 33 39 35.7188 39 39C39 42.375 41.625 45 45 45Z" fill="black"/>
</svg>
