<svg width="60" height="51" viewBox="0 0 60 51" fill="none" xmlns="http://www.w3.org/2000/svg">
<path d="M57.7344 7.76953C57.832 8.16016 59.7852 17.9258 53.6328 26.9102C49.5312 32.9648 42.8906 37.0664 33.8086 39.3125C32.4414 39.7031 31.4648 40.875 31.4648 42.3398V47.125H40.8398C41.7188 47.125 42.3047 47.9062 42.3047 48.6875C42.3047 49.5664 41.6211 50.25 40.8398 50.25H19.0625C18.1836 50.25 17.4023 49.5664 17.4023 48.6875C17.4023 47.9062 18.1836 47.125 19.0625 47.125H28.4375L28.3398 42.3398C28.3398 40.875 27.3633 39.6055 25.9961 39.3125C16.9141 37.0664 10.2734 32.9648 6.26953 26.9102C0.117188 17.9258 2.07031 8.16016 2.16797 7.76953C2.36328 7.08594 2.94922 6.5 3.73047 6.5H14.375C14.375 5.91406 14.375 5.32812 14.375 4.83984C14.375 2.30078 16.5234 0.25 19.0625 0.25H40.8398C43.3789 0.25 45.5273 2.30078 45.5273 4.83984C45.5273 5.32812 45.5273 5.91406 45.5273 6.5H56.1719C56.9531 6.5 57.5391 7.08594 57.7344 7.76953ZM17.5 4.9375C17.3047 12.8477 18.0859 31.5977 30 36.8711C41.8164 31.5977 42.5977 12.8477 42.3047 4.9375C42.4023 4.05859 41.7188 3.375 40.8398 3.375H19.0625C18.1836 3.375 17.5 4.05859 17.5 4.9375ZM8.80859 25.25C11.7383 29.5469 16.3281 32.7695 22.2852 34.918C16.3281 28.082 14.668 17.2422 14.375 9.625H5.09766C4.80469 12.3594 4.70703 19.0977 8.80859 25.25ZM51.0938 25.25C55.1953 19.0977 55.0977 12.3594 54.8047 9.625H45.5273C45.2344 17.2422 43.5742 28.082 37.6172 34.918C43.5742 32.7695 48.1641 29.5469 51.0938 25.25Z" fill="black"/>
</svg>
