<svg width="48" height="51" viewBox="0 0 48 51" fill="none" xmlns="http://www.w3.org/2000/svg">
<path d="M44.5078 8.45312C46.2656 9.23438 47.4375 10.8945 47.4375 12.75C47.4375 38.1406 28.7852 50.25 23.9023 50.25C19.0195 50.25 0.5625 37.9453 0.5625 12.75C0.5625 10.8945 1.63672 9.23438 3.39453 8.45312L22.1445 0.640625C22.7305 0.445312 23.3164 0.347656 24 0.347656C24.5859 0.347656 25.1719 0.445312 25.7578 0.640625L44.5078 8.45312ZM44.2148 12.8477C44.2148 12.5547 44.2148 11.7734 43.3359 11.3828L24.5859 3.57031C24.3906 3.47266 24.1953 3.375 24 3.375C23.707 3.375 23.5117 3.47266 23.3164 3.57031L4.56641 11.3828C3.98047 11.5781 3.6875 12.1641 3.6875 12.75C3.6875 34.7227 19.8008 47.125 24 47.125C28.0039 47.125 44.2148 34.8203 44.2148 12.8477ZM31.8125 18.0234C32.6914 18.0234 33.375 18.707 33.375 19.5859C33.375 19.9766 33.1797 20.3672 32.8867 20.6602L22.4375 31.1094C22.1445 31.4023 21.7539 31.5 21.3633 31.5C20.9727 31.5 20.582 31.4023 20.2891 31.1094L15.0156 25.9336C14.7227 25.543 14.625 25.1523 14.625 24.7617C14.625 23.9805 15.2109 23.1992 16.1875 23.1992C16.5781 23.1992 16.9688 23.3945 17.2617 23.6875L21.3633 27.7891L30.6406 18.4141C30.9336 18.1211 31.3242 18.0234 31.8125 18.0234Z" fill="black"/>
</svg>
