<svg width="54" height="48" viewBox="0 0 54 48" fill="none" xmlns="http://www.w3.org/2000/svg">
<path d="M11.1562 6C12.0938 6 12.8438 7.03125 12.5625 7.875C12.1875 9.1875 12 10.5 12 12C12 13.5 12.1875 14.8125 12.5625 16.0312C12.8438 16.9688 12.0938 18 11.0625 18C10.4062 18 9.84375 17.5312 9.65625 16.875C9.1875 15.375 9 13.5938 9 12C9 10.3125 9.1875 8.625 9.65625 7.03125C9.84375 6.375 10.5 6 11.1562 6ZM3.75 0C4.875 0 5.53125 1.21875 5.0625 2.0625C3.75 5.0625 3 8.34375 3 12C3 15.5625 3.75 18.9375 5.0625 21.8438C5.53125 22.7812 4.875 24 3.75 24C3.1875 24 2.625 23.7188 2.34375 23.1562C0.84375 19.7812 0 15.8438 0 12C0 8.0625 0.84375 4.3125 2.34375 0.9375C2.625 0.375 3.1875 0 3.75 0ZM42.8438 6C43.5 6 44.0625 6.46875 44.25 7.03125C44.7188 8.53125 45 10.125 45 12C45 13.7812 44.7188 15.4688 44.25 16.875C44.0625 17.5312 43.4062 18 42.75 18C41.8125 18 41.0625 16.9688 41.3438 16.0312C41.7188 14.7188 42 13.3125 42 12C42 10.5938 41.7188 9.28125 41.3438 7.875C41.0625 6.9375 41.8125 6 42.8438 6ZM51.4688 0.9375C53.0625 4.3125 54 7.875 54 12C54 16.0312 53.0625 19.7812 51.4688 23.1562C51.2812 23.7188 50.7188 24 50.1562 24C49.0312 24 48.375 22.875 48.8438 21.9375C50.1562 18.9375 51 15.375 51 12C51 8.53125 50.1562 5.15625 48.8438 2.15625C48.375 1.21875 49.0312 0 50.1562 0C50.7188 0 51.2812 0.375 51.4688 0.9375ZM25.5 6.1875C29.4375 5.34375 33 8.25 33 12.0938C33 14.8125 31.0312 17.1562 28.5 17.8125V46.5C28.5 47.25 27.75 48 27 48C26.1562 48 25.5 47.3438 25.5 46.5V17.8125C22.4062 17.0625 20.3438 14.0625 21.0938 10.5938C21.6562 8.4375 23.3438 6.75 25.5 6.1875ZM27 15C28.5938 15 30 13.5938 30 12C30 10.5 28.5938 9.09375 27 9.09375C25.3125 9.09375 24 10.4062 24 12C24 13.6875 25.3125 15 27 15Z" fill="black"/>
</svg>
