<svg width="50" height="51" viewBox="0 0 50 51" fill="none" xmlns="http://www.w3.org/2000/svg">
<path d="M33.2031 17.9258C33.7891 17.3398 34.8633 17.3398 35.4492 17.9258C36.0352 18.5117 36.0352 19.5859 35.4492 20.1719L22.9492 32.6719C22.6562 32.9648 22.2656 33.0625 21.875 33.0625C21.3867 33.0625 20.9961 32.9648 20.7031 32.6719L14.4531 26.4219C13.8672 25.8359 13.8672 24.7617 14.4531 24.1758C15.0391 23.5898 16.1133 23.5898 16.6992 24.1758L21.875 29.3516L33.2031 17.9258ZM25 0.25C38.7695 0.25 50 11.4805 50 25.25C50 39.1172 38.7695 50.25 25 50.25C11.1328 50.25 0 39.1172 0 25.25C0 11.4805 11.1328 0.25 25 0.25ZM25 47.125C37.0117 47.125 46.875 37.3594 46.875 25.25C46.875 13.2383 37.0117 3.375 25 3.375C12.8906 3.375 3.125 13.2383 3.125 25.25C3.125 37.3594 12.8906 47.125 25 47.125Z" fill="black"/>
</svg>
