<svg width="1320" height="438" viewBox="0 0 1320 438" fill="none" xmlns="http://www.w3.org/2000/svg">
<g clip-path="url(#clip0_111_888)">
<path d="M1231.61 258.147L1165.99 323.787C1160.84 328.941 1160.84 337.299 1165.99 342.454L1231.61 408.093C1236.76 413.248 1245.11 413.248 1250.27 408.093L1315.88 342.454C1321.04 337.299 1321.04 328.941 1315.88 323.787L1250.27 258.147C1245.11 252.993 1236.76 252.993 1231.61 258.147Z" stroke="black" stroke-width="0.5" stroke-miterlimit="10"/>
<path d="M72.2175 405.106C111.958 405.106 144.175 372.878 144.175 333.123C144.175 293.368 111.958 261.141 72.2175 261.141C32.4766 261.141 0.260254 293.368 0.260254 333.123C0.260254 372.878 32.4766 405.106 72.2175 405.106Z" stroke="black" stroke-width="0.5" stroke-miterlimit="10"/>
<path d="M226.016 316.281C265.757 316.281 297.973 284.053 297.973 244.299C297.973 204.544 265.757 172.316 226.016 172.316C186.275 172.316 154.059 204.544 154.059 244.299C154.059 284.053 186.275 316.281 226.016 316.281Z" stroke="black" stroke-width="0.5" stroke-miterlimit="10"/>
<path d="M392.889 255.527C432.63 255.527 464.846 223.299 464.846 183.544C464.846 143.789 432.63 111.562 392.889 111.562C353.148 111.562 320.932 143.789 320.932 183.544C320.932 223.299 353.148 255.527 392.889 255.527Z" stroke="black" stroke-width="0.5" stroke-miterlimit="10"/>
<path d="M567.785 224.674C607.526 224.674 639.742 192.446 639.742 152.692C639.742 112.937 607.526 80.709 567.785 80.709C528.044 80.709 495.828 112.937 495.828 152.692C495.828 192.446 528.044 224.674 567.785 224.674Z" stroke="black" stroke-width="0.5" stroke-miterlimit="10"/>
<path d="M745.372 224.674C785.113 224.674 817.33 192.446 817.33 152.692C817.33 112.937 785.113 80.709 745.372 80.709C705.631 80.709 673.415 112.937 673.415 152.692C673.415 192.446 705.631 224.674 745.372 224.674Z" stroke="black" stroke-width="0.5" stroke-miterlimit="10"/>
<path d="M920.259 255.527C959.999 255.527 992.216 223.299 992.216 183.544C992.216 143.789 959.999 111.562 920.259 111.562C880.518 111.562 848.301 143.789 848.301 183.544C848.301 223.299 880.518 255.527 920.259 255.527Z" stroke="black" stroke-width="0.5" stroke-miterlimit="10"/>
<path d="M1087.14 316.281C1126.88 316.281 1159.1 284.053 1159.1 244.299C1159.1 204.544 1126.88 172.316 1087.14 172.316C1047.4 172.316 1015.18 204.544 1015.18 244.299C1015.18 284.053 1047.4 316.281 1087.14 316.281Z" stroke="black" stroke-width="0.5" stroke-miterlimit="10"/>
<path d="M898.84 191.82V191.74H896.629V190.69H902.372V191.74H900.171V191.81C900.171 193.111 901.021 194.412 902.662 194.963L902.011 195.993C900.831 195.593 899.991 194.783 899.53 193.782C899.07 194.913 898.18 195.823 896.92 196.274L896.239 195.243C897.95 194.662 898.84 193.231 898.84 191.82ZM901.571 196.564C903.822 196.564 905.193 197.314 905.193 198.585C905.193 199.856 903.822 200.607 901.571 200.607C899.33 200.607 897.95 199.856 897.96 198.585C897.96 197.314 899.33 196.564 901.571 196.564ZM901.571 199.596C903.052 199.596 903.892 199.246 903.892 198.585C903.892 197.925 903.052 197.565 901.571 197.565C900.091 197.565 899.25 197.915 899.26 198.585C899.26 199.246 900.091 199.606 901.571 199.596ZM905.163 196.304H903.862V193.712H902.051V192.641H903.862V189.999H905.163V196.304Z" fill="black"/>
<path d="M912.996 195.143L912.316 196.173C911.145 195.773 910.305 194.972 909.835 193.952C909.375 195.072 908.494 195.953 907.254 196.393L906.523 195.363C908.264 194.792 909.134 193.361 909.144 191.86V190.649H910.455V191.87C910.455 193.261 911.325 194.592 912.996 195.143ZM908.234 197.024H909.565V199.346H915.457V200.406H908.234V197.034V197.024ZM913.716 189.989H915.027V193.121H916.507V194.222H915.027V197.784H913.716V189.989Z" fill="black"/>
<path d="M921.839 195.363V193.211H923.13V195.323C924.23 195.273 925.351 195.193 926.391 195.042L926.461 195.993C924.25 196.383 921.739 196.433 919.889 196.433L919.769 195.383C920.389 195.383 921.089 195.383 921.839 195.363ZM925.811 191.42C925.811 192.14 925.811 193.201 925.551 194.542L924.26 194.422C924.47 193.321 924.51 192.511 924.53 191.86H920.399V190.789H925.801V191.42H925.811ZM921.359 197.244H922.67V199.356H928.692V200.416H921.359V197.244ZM927.021 190.009H928.352V193.311H929.722V194.412H928.352V197.965H927.021V190.009Z" fill="black"/>
<path d="M930.843 190.92H935.845V194.903H932.203V197.034C933.874 197.034 935.314 196.944 936.965 196.664L937.085 197.735C935.274 198.045 933.694 198.115 931.783 198.115H930.853V193.862H934.514V191.98H930.843V190.92ZM939.106 200.627H937.805V189.999H939.106V200.627Z" fill="black"/>
<path d="M941.737 200.847H940.426L943.167 190.659H944.478L941.737 200.847Z" fill="black"/>
<path d="M889.607 209.433H891.338V206.971H892.548V214.046H888.376V206.971H889.607V209.433ZM891.338 212.996V210.464H889.607V212.996H891.338ZM893.578 206.191H894.819V210.103H895.949V206H897.2V216.608H895.949V211.174H894.819V216.108H893.578V206.191Z" fill="black"/>
<path d="M903.902 211.144H908.104V212.195H898.43V211.144H902.602V209.753H903.892V211.144H903.902ZM902.582 206.581V206.181H903.912V206.581C903.912 207.872 905.333 209.053 907.554 209.323L907.043 210.354C905.303 210.084 903.912 209.293 903.232 208.182C902.552 209.293 901.161 210.084 899.421 210.354L898.94 209.323C901.131 209.043 902.572 207.842 902.572 206.581H902.582ZM903.242 212.866C905.543 212.866 906.913 213.546 906.923 214.747C906.923 215.948 905.553 216.608 903.242 216.608C900.931 216.608 899.551 215.948 899.551 214.747C899.551 213.546 900.931 212.866 903.242 212.866ZM903.242 215.618C904.783 215.618 905.613 215.317 905.613 214.737C905.613 214.146 904.773 213.866 903.242 213.866C901.711 213.866 900.871 214.156 900.871 214.737C900.871 215.317 901.681 215.618 903.242 215.618Z" fill="black"/>
<path d="M911.925 206.781C913.516 206.781 914.686 208.242 914.686 210.534C914.686 212.826 913.516 214.297 911.925 214.297C910.315 214.297 909.144 212.846 909.154 210.534C909.154 208.242 910.315 206.791 911.925 206.781ZM911.925 213.106C912.816 213.106 913.426 212.155 913.426 210.524C913.426 208.893 912.816 207.952 911.925 207.952C911.035 207.952 910.415 208.903 910.415 210.524C910.415 212.145 911.025 213.106 911.925 213.106ZM917.648 216.639H916.327V206.011H917.648V216.639Z" fill="black"/>
<path d="M919.128 207.161H921.129V206.101H922.419V207.161H924.4V208.182H919.118V207.161H919.128ZM921.779 208.612C923.13 208.612 924.08 209.343 924.09 210.454C924.09 211.555 923.13 212.285 921.779 212.285C920.429 212.285 919.488 211.555 919.498 210.454C919.498 209.343 920.449 208.612 921.779 208.612ZM921.779 211.344C922.449 211.344 922.9 211.004 922.9 210.454C922.9 209.903 922.439 209.563 921.779 209.563C921.119 209.563 920.659 209.903 920.659 210.454C920.659 211.004 921.109 211.344 921.779 211.344ZM924.68 212.815C926.951 212.815 928.312 213.506 928.322 214.727C928.322 215.938 926.951 216.628 924.68 216.618C922.409 216.618 921.039 215.928 921.049 214.727C921.049 213.506 922.419 212.815 924.68 212.815ZM924.68 215.618C926.191 215.618 927.001 215.307 927.011 214.717C927.011 214.106 926.191 213.796 924.68 213.806C923.17 213.806 922.339 214.106 922.349 214.717C922.349 215.307 923.17 215.618 924.68 215.618ZM928.262 212.685H927.021V209.793H925.981V212.325H924.76V206.221H925.981V208.732H927.021V206.021H928.262V212.695V212.685Z" fill="black"/>
<path d="M942.087 212.015H932.413V210.954H942.087V212.015ZM936.345 207.582H933.303V206.521H941.216V207.582H938.155C938.345 208.462 939.616 209.263 941.637 209.463L941.176 210.484C939.246 210.294 937.825 209.523 937.245 208.452C936.675 209.523 935.264 210.294 933.333 210.484L932.893 209.463C934.864 209.273 936.155 208.472 936.355 207.582H936.345ZM937.245 212.716C939.546 212.716 940.916 213.426 940.926 214.667C940.926 215.918 939.546 216.618 937.245 216.608C934.944 216.608 933.554 215.908 933.554 214.667C933.554 213.426 934.944 212.716 937.245 212.716ZM937.245 215.588C938.766 215.588 939.616 215.287 939.616 214.667C939.616 214.046 938.766 213.736 937.245 213.736C935.704 213.736 934.874 214.057 934.874 214.667C934.874 215.277 935.704 215.588 937.245 215.588Z" fill="black"/>
<path d="M951.69 212.245H950.39V210.784H948.249V211.605H943.267V206.791H948.249V207.612H950.39V206H951.69V212.235V212.245ZM948.099 212.535C950.35 212.535 951.72 213.286 951.72 214.577C951.72 215.868 950.35 216.608 948.099 216.608C945.858 216.608 944.478 215.868 944.488 214.577C944.488 213.286 945.858 212.535 948.099 212.535ZM946.958 210.564V207.842H944.558V210.564H946.958ZM948.099 215.607C949.579 215.607 950.42 215.237 950.42 214.577C950.42 213.896 949.579 213.536 948.099 213.536C946.618 213.536 945.778 213.896 945.788 214.577C945.788 215.237 946.618 215.607 948.099 215.607ZM950.39 209.733V208.662H948.249V209.733H950.39Z" fill="black"/>
<path d="M902.812 151.691V167.202C902.812 168.273 903.682 169.144 904.753 169.144H921.359L920.879 171.085H904.753C902.612 171.085 900.871 169.344 900.871 167.202V151.691C900.871 149.549 902.612 147.808 904.753 147.808H931.883C934.024 147.808 935.764 149.549 935.764 151.691V155.574C935.104 155.554 934.444 155.674 933.824 155.914V151.701C933.824 150.63 932.953 149.76 931.883 149.76H904.753C903.682 149.76 902.812 150.63 902.812 151.701V151.691ZM907.654 155.574H928.972C929.502 155.574 929.942 156.014 929.942 156.544C929.942 157.075 929.502 157.515 928.972 157.515H907.654C907.123 157.515 906.683 157.075 906.683 156.544C906.683 156.014 907.123 155.574 907.654 155.574ZM923.16 161.388C923.69 161.388 924.13 161.828 924.13 162.359C924.13 162.889 923.69 163.329 923.16 163.329H907.654C907.123 163.329 906.683 162.889 906.683 162.359C906.683 161.828 907.123 161.388 907.654 161.388H923.16ZM933.423 158.556C934.564 157.425 936.405 157.425 937.535 158.556L938.585 159.607C939.716 160.748 939.716 162.589 938.585 163.72L929.272 173.037C928.892 173.407 928.432 173.677 927.921 173.797L923.39 174.928C923.059 175.008 922.709 174.918 922.469 174.678C922.229 174.438 922.129 174.087 922.219 173.757L923.35 169.224C923.48 168.713 923.74 168.243 924.11 167.873L933.423 158.556ZM925.49 169.254C925.37 169.374 925.28 169.534 925.24 169.704L924.5 172.676L927.471 171.936C927.641 171.896 927.791 171.806 927.921 171.686L934.364 165.251L931.943 162.829L925.51 169.264L925.49 169.254ZM934.804 159.937L933.303 161.438L935.724 163.86L937.225 162.359C937.605 161.978 937.605 161.368 937.225 160.988L936.174 159.937C935.794 159.557 935.184 159.557 934.804 159.937Z" fill="black"/>
<path d="M1066.95 253.065H1068.69V251.493H1069.91V256.567H1065.71V251.493H1066.95V253.065ZM1068.69 255.526V254.075H1066.95V255.526H1068.69ZM1067.1 257.748H1074.38V261.431H1073.08V258.799H1067.1V257.748ZM1070.86 251.023H1072.07V253.475H1073.13V250.833H1074.37V257.218H1073.13V254.546H1072.07V257.158H1070.86V251.033V251.023Z" fill="black"/>
<path d="M1078.3 252.454V251.413H1079.65V252.454C1079.65 253.935 1080.51 255.326 1082.19 255.897L1081.52 256.927C1080.31 256.507 1079.45 255.657 1078.98 254.576C1078.51 255.737 1077.63 256.667 1076.39 257.118L1075.7 256.087C1077.42 255.476 1078.3 253.975 1078.3 252.454ZM1077.5 257.848H1078.82V260.17H1084.82V261.231H1077.5V257.848ZM1084.52 258.589H1083.21V250.833H1084.52V258.589Z" fill="black"/>
<path d="M1090.87 256.187V254.035H1092.16V256.147C1093.26 256.107 1094.38 256.017 1095.43 255.867L1095.5 256.817C1093.28 257.208 1090.77 257.258 1088.92 257.258L1088.8 256.207C1089.42 256.207 1090.12 256.207 1090.87 256.187ZM1094.85 252.244C1094.85 252.965 1094.85 254.025 1094.58 255.366L1093.29 255.246C1093.5 254.145 1093.54 253.335 1093.56 252.684H1089.43V251.604H1094.84V252.234L1094.85 252.244ZM1090.39 258.068H1091.7V260.18H1097.73V261.241H1090.39V258.068ZM1096.06 250.833H1097.39V254.135H1098.76V255.236H1097.39V258.789H1096.06V250.833Z" fill="black"/>
<path d="M1099.88 251.754H1104.88V255.737H1101.24V257.868C1102.91 257.868 1104.35 257.778 1106 257.498L1106.12 258.569C1104.31 258.879 1102.73 258.949 1100.82 258.949H1099.89V254.696H1103.55V252.814H1099.88V251.754ZM1108.14 261.461H1106.84V250.833H1108.14V261.461Z" fill="black"/>
<path d="M1060.35 270.027H1061.33V271.028H1061.41C1061.68 270.337 1062.29 269.937 1063.12 269.937C1063.95 269.937 1064.52 270.337 1064.83 271.028H1064.9C1065.22 270.367 1065.9 269.937 1066.81 269.937C1067.95 269.937 1068.76 270.638 1068.76 272.129V276.402H1067.75V272.149C1067.75 271.208 1067.16 270.848 1066.46 270.848C1065.57 270.848 1065.07 271.448 1065.07 272.259V276.402H1064.05V272.049C1064.05 271.328 1063.54 270.848 1062.8 270.848C1062.06 270.848 1061.37 271.498 1061.37 272.429V276.412H1060.36V270.027H1060.35Z" fill="black"/>
<path d="M1070.06 273.27C1070.06 271.308 1071.21 269.947 1072.94 269.947C1074.28 269.947 1075.7 270.768 1075.7 273.14V273.56H1071.08C1071.13 274.911 1071.91 275.641 1073.04 275.641C1073.8 275.641 1074.29 275.311 1074.52 274.911H1075.6C1075.3 275.882 1074.35 276.542 1073.04 276.542C1071.2 276.542 1070.06 275.231 1070.06 273.27ZM1074.67 272.699C1074.67 271.639 1074 270.848 1072.95 270.848C1071.84 270.848 1071.14 271.719 1071.08 272.699H1074.67Z" fill="black"/>
<path d="M1076.7 273.24C1076.7 271.218 1077.82 269.947 1079.42 269.947C1080.66 269.947 1081.05 270.698 1081.26 271.048H1081.33V267.906H1082.34V276.412H1081.36V275.431H1081.25C1081.03 275.792 1080.61 276.542 1079.39 276.542C1077.8 276.542 1076.68 275.261 1076.68 273.24H1076.7ZM1079.56 275.641C1080.72 275.641 1081.37 274.651 1081.37 273.22C1081.37 271.789 1080.74 270.848 1079.56 270.848C1078.38 270.848 1077.73 271.879 1077.73 273.22C1077.73 274.561 1078.35 275.641 1079.56 275.641Z" fill="black"/>
<path d="M1084.6 267.625C1084.98 267.625 1085.31 267.926 1085.31 268.296C1085.31 268.666 1084.99 268.966 1084.6 268.966C1084.21 268.966 1083.89 268.666 1083.89 268.296C1083.89 267.926 1084.21 267.625 1084.6 267.625ZM1084.09 270.027H1085.1V276.412H1084.09V270.027Z" fill="black"/>
<path d="M1086.4 273.25C1086.4 271.308 1087.55 269.947 1089.29 269.947C1090.64 269.947 1091.66 270.758 1091.82 271.959H1090.82C1090.67 271.378 1090.16 270.848 1089.31 270.848C1088.17 270.848 1087.42 271.789 1087.42 273.22C1087.42 274.651 1088.16 275.641 1089.31 275.641C1090.07 275.641 1090.64 275.231 1090.82 274.541H1091.82C1091.66 275.681 1090.72 276.552 1089.3 276.552C1087.5 276.552 1086.39 275.171 1086.39 273.26L1086.4 273.25Z" fill="black"/>
<path d="M1094.07 276.412H1093.06V267.906H1094.07V271.038H1094.15C1094.45 270.378 1095.02 269.947 1096.04 269.947C1097.34 269.947 1098.21 270.718 1098.21 272.359V276.412H1097.2V272.429C1097.2 271.428 1096.65 270.848 1095.73 270.848C1094.82 270.848 1094.07 271.468 1094.07 272.579V276.412Z" fill="black"/>
<path d="M1101.91 272.719C1102.33 272.689 1103.35 272.629 1103.64 272.619V272.099C1103.64 271.288 1103.16 270.818 1102.2 270.818C1101.39 270.818 1100.91 271.188 1100.76 271.678H1099.71C1099.83 270.648 1100.83 269.937 1102.24 269.937C1103.07 269.937 1104.64 270.187 1104.64 272.199V276.402H1103.64V275.541H1103.59C1103.38 275.961 1102.8 276.552 1101.7 276.552C1100.49 276.552 1099.53 275.841 1099.53 274.59C1099.53 273.129 1100.82 272.799 1101.92 272.709L1101.91 272.719ZM1101.86 275.661C1103.01 275.661 1103.64 274.901 1103.64 274.1V273.46C1103.34 273.48 1102.34 273.55 1102.04 273.57C1101.12 273.63 1100.54 273.95 1100.54 274.65C1100.54 275.351 1101.1 275.661 1101.87 275.661H1101.86Z" fill="black"/>
<path d="M1106.75 267.625C1107.13 267.625 1107.46 267.926 1107.46 268.296C1107.46 268.666 1107.14 268.966 1106.75 268.966C1106.36 268.966 1106.04 268.666 1106.04 268.296C1106.04 267.926 1106.36 267.625 1106.75 267.625ZM1106.24 270.027H1107.25V276.412H1106.24V270.027Z" fill="black"/>
<path d="M1109.87 276.412H1108.86V270.027H1109.84V271.028H1109.92C1110.22 270.367 1110.82 269.937 1111.78 269.937C1113.07 269.937 1113.94 270.728 1113.94 272.349V276.402H1112.93V272.419C1112.93 271.428 1112.39 270.838 1111.49 270.838C1110.59 270.838 1109.88 271.458 1109.88 272.569V276.402L1109.87 276.412Z" fill="black"/>
<path d="M1071.64 207.672C1071.64 207.141 1072.08 206.701 1072.61 206.701H1086.17C1086.7 206.701 1087.14 207.141 1087.14 207.672C1087.14 208.202 1086.7 208.643 1086.17 208.643H1085.2V220.932C1083.98 222.663 1083.26 224.774 1083.26 227.066V218.34H1075.51V228.037C1075.51 230.178 1077.25 231.92 1079.39 231.92C1081.53 231.92 1083.27 230.178 1083.27 228.037V227.066C1083.27 228.597 1083.59 230.038 1084.17 231.359C1083.12 232.87 1081.37 233.851 1079.4 233.851C1076.19 233.851 1073.59 231.249 1073.59 228.037V208.643H1072.62C1072.09 208.643 1071.65 208.202 1071.65 207.672H1071.64ZM1075.52 208.643V216.398H1083.27V208.643H1075.52ZM1093.93 218.34C1097.05 218.34 1099.93 220.001 1101.49 222.703C1103.05 225.405 1103.05 228.727 1101.49 231.429C1099.93 234.131 1097.05 235.792 1093.93 235.792C1090.82 235.792 1087.94 234.131 1086.38 231.429C1084.82 228.727 1084.82 225.405 1086.38 222.703C1087.94 220.001 1090.82 218.34 1093.93 218.34ZM1093.93 233.851C1096.36 233.851 1098.6 232.56 1099.81 230.459C1101.02 228.357 1101.02 225.775 1099.81 223.674C1098.6 221.572 1096.36 220.281 1093.93 220.281C1091.51 220.281 1089.27 221.572 1088.06 223.674C1086.85 225.775 1086.85 228.357 1088.06 230.459C1089.27 232.56 1091.51 233.851 1093.93 233.851ZM1098.01 224.444C1098.39 224.824 1098.39 225.435 1098.01 225.815L1093.64 230.178C1093.26 230.559 1092.65 230.559 1092.27 230.178L1089.85 227.757C1089.47 227.376 1089.47 226.766 1089.85 226.386C1090.23 226.005 1090.84 226.005 1091.22 226.386L1092.96 228.127L1096.65 224.444C1097.03 224.064 1097.64 224.064 1098.02 224.444H1098.01Z" fill="black"/>
<path d="M1219.1 352.658H1222.67V348.965H1223.96V352.658H1228.77V353.729H1219.09V352.658H1219.1ZM1227.77 346.473C1227.77 347.794 1227.77 349.275 1227.34 351.487L1226.02 351.347C1226.44 349.285 1226.44 347.774 1226.44 346.503H1220.1V345.453H1227.76V346.473H1227.77Z" fill="black"/>
<path d="M1232.78 346.293H1229.91V345.232H1234.11C1234.11 347.864 1232.79 349.695 1230.05 350.806L1229.42 349.826C1231.49 349.045 1232.57 347.834 1232.78 346.283V346.293ZM1231.24 351.157H1238.56V355.089H1237.26V352.207H1231.24V351.147V351.157ZM1238.56 350.716H1237.32V348.074H1236.21V350.666H1234.98V344.682H1236.21V347.004H1237.32V344.492H1238.56V350.716Z" fill="black"/>
<path d="M1244.67 349.846V347.694H1245.96V349.806C1247.06 349.766 1248.18 349.675 1249.22 349.525L1249.29 350.476C1247.08 350.866 1244.57 350.916 1242.72 350.916L1242.6 349.866C1243.22 349.866 1243.92 349.866 1244.67 349.846ZM1248.64 345.903C1248.64 346.623 1248.64 347.684 1248.38 349.025L1247.09 348.905C1247.3 347.804 1247.34 346.994 1247.36 346.343H1243.23V345.262H1248.63V345.893L1248.64 345.903ZM1244.19 351.727H1245.5V353.839H1251.52V354.899H1244.19V351.727ZM1249.85 344.492H1251.18V347.794H1252.55V348.895H1251.18V352.448H1249.85V344.492Z" fill="black"/>
<path d="M1253.67 345.403H1258.68V349.386H1255.04V351.517C1256.71 351.517 1258.15 351.427 1259.8 351.147L1259.92 352.218C1258.11 352.528 1256.53 352.598 1254.62 352.598H1253.68V348.345H1257.35V346.463H1253.67V345.403ZM1261.94 355.11H1260.64V344.482H1261.94V355.11Z" fill="black"/>
<path d="M1223.49 327.509H1242.81C1243.75 328.3 1245.04 328.34 1246.02 327.8V327.85C1246.02 328.41 1246.18 328.97 1246.5 329.441H1223.35C1222.36 329.441 1221.55 328.63 1221.55 327.639C1221.55 321.675 1226.38 316.832 1232.36 316.832H1237.89C1238.6 316.832 1239.31 316.902 1239.98 317.032C1239.88 317.862 1240.17 318.643 1240.68 319.223C1239.8 318.933 1238.86 318.773 1237.88 318.773H1232.35C1227.51 318.773 1223.56 322.666 1223.48 327.499L1223.49 327.509ZM1227.38 306.184C1227.38 303.412 1228.86 300.85 1231.26 299.469C1233.66 298.088 1236.61 298.088 1239.01 299.469C1241.41 300.85 1242.89 303.412 1242.89 306.184C1242.89 308.956 1241.41 311.518 1239.01 312.899C1236.61 314.28 1233.66 314.28 1231.26 312.899C1228.86 311.518 1227.38 308.956 1227.38 306.184ZM1235.13 311.998C1237.21 311.998 1239.13 310.887 1240.16 309.086C1241.2 307.285 1241.2 305.073 1240.16 303.272C1239.12 301.47 1237.2 300.36 1235.13 300.36C1233.06 300.36 1231.13 301.47 1230.1 303.272C1229.06 305.073 1229.06 307.285 1230.1 309.086C1231.14 310.887 1233.06 311.998 1235.13 311.998ZM1245.76 326.048L1245.66 326.108C1245.01 326.489 1244.18 326.268 1243.81 325.608L1242.21 322.766C1241.86 322.145 1242.07 321.365 1242.68 321.005C1243.12 320.744 1243.36 320.244 1243.36 319.734C1243.36 319.223 1243.12 318.723 1242.68 318.463C1242.07 318.102 1241.86 317.322 1242.21 316.701L1243.81 313.859C1244.18 313.209 1245.01 312.979 1245.66 313.359L1245.76 313.419C1246.15 313.659 1246.64 313.629 1247.04 313.399C1247.44 313.169 1247.72 312.759 1247.72 312.298V312.218C1247.72 311.508 1248.3 310.927 1249.01 310.927H1252.24C1252.95 310.927 1253.54 311.508 1253.54 312.228V312.328C1253.54 312.779 1253.82 313.189 1254.22 313.419C1254.61 313.639 1255.1 313.669 1255.49 313.439L1255.6 313.379C1256.25 312.999 1257.08 313.219 1257.45 313.879L1259.05 316.711C1259.4 317.332 1259.19 318.102 1258.58 318.473C1258.14 318.733 1257.9 319.233 1257.9 319.744C1257.9 320.254 1258.14 320.754 1258.58 321.015C1259.19 321.375 1259.4 322.155 1259.05 322.776L1257.45 325.618C1257.08 326.268 1256.25 326.499 1255.6 326.118L1255.49 326.058C1255.1 325.828 1254.61 325.848 1254.22 326.078C1253.82 326.298 1253.54 326.709 1253.54 327.169V327.269C1253.54 327.98 1252.96 328.57 1252.24 328.57H1249.01C1248.3 328.57 1247.72 327.99 1247.72 327.279V327.199C1247.72 326.739 1247.44 326.328 1247.04 326.098C1246.64 325.878 1246.15 325.848 1245.76 326.078V326.048ZM1244.18 322.306L1245.22 324.157C1246.18 323.777 1247.22 323.937 1248.01 324.377C1248.77 324.817 1249.44 325.598 1249.62 326.599H1251.66C1251.84 325.598 1252.5 324.807 1253.26 324.377C1254.05 323.927 1255.09 323.777 1256.05 324.157L1257.09 322.306C1256.32 321.615 1255.97 320.624 1255.97 319.734C1255.97 318.843 1256.32 317.852 1257.09 317.162L1256.05 315.31C1255.09 315.691 1254.06 315.531 1253.26 315.09C1252.49 314.65 1251.83 313.859 1251.66 312.859H1249.62C1249.43 313.859 1248.77 314.65 1248.01 315.08C1247.22 315.531 1246.19 315.681 1245.22 315.3L1244.18 317.152C1244.95 317.842 1245.3 318.833 1245.3 319.724C1245.3 320.614 1244.95 321.605 1244.18 322.296V322.306ZM1250.63 316.341C1251.84 316.341 1252.96 316.992 1253.57 318.042C1254.19 319.093 1254.19 320.384 1253.57 321.435C1252.96 322.486 1251.84 323.136 1250.63 323.136C1249.42 323.136 1248.3 322.486 1247.69 321.435C1247.08 320.384 1247.08 319.093 1247.69 318.042C1248.3 316.992 1249.42 316.341 1250.63 316.341ZM1250.63 321.185C1251.43 321.185 1252.08 320.534 1252.08 319.734C1252.08 318.933 1251.43 318.283 1250.63 318.283C1249.83 318.283 1249.18 318.933 1249.18 319.734C1249.18 320.534 1249.83 321.185 1250.63 321.185Z" fill="black"/>
<path d="M710.579 157.145V156.334H711.929V157.145C711.929 158.506 712.82 159.767 714.5 160.267L713.86 161.278C712.63 160.898 711.749 160.107 711.269 159.106C710.789 160.207 709.889 161.068 708.618 161.478L707.958 160.457C709.669 159.917 710.579 158.546 710.579 157.155V157.145ZM709.759 161.979H716.801V164.741H711.059V165.561H717.121V166.602H709.789V163.77H715.501V162.999H709.759V161.979ZM716.791 161.488H715.501V156.074H716.791V161.488Z" fill="black"/>
<path d="M725.105 163.259L724.324 164.31C723.104 163.75 722.213 162.619 721.713 161.228C721.233 162.719 720.323 163.95 719.032 164.55L718.232 163.46C719.993 162.699 721.023 160.668 721.033 158.626V156.925H722.353V158.626C722.353 160.567 723.374 162.519 725.095 163.259H725.105ZM725.865 156.074H727.185V166.702H725.865V156.074Z" fill="black"/>
<path d="M732.787 157.946H729.146V156.875H734.228C734.228 159.697 732.387 161.708 729.246 162.629L728.696 161.588C731.127 160.878 732.567 159.557 732.797 157.946H732.787ZM730.286 162.949H731.607V165.421H737.509V166.482H730.296V162.949H730.286ZM737.099 159.126H738.58V160.207H737.099V163.73H735.779V156.074H737.099V159.126Z" fill="black"/>
<path d="M751.665 165.401H741.961V164.33H746.143V162.018H743.031V156.895H750.544V162.018H747.443V164.33H751.675V165.401H751.665ZM749.254 160.988V157.935H744.312V160.988H749.254Z" fill="black"/>
<path d="M752.945 157.095H754.236V162.899C755.726 162.879 757.307 162.749 758.938 162.419L759.108 163.51C757.247 163.9 755.516 164.02 753.856 164.02H752.945V157.095ZM761.198 166.682H759.898V156.074H761.198V166.682Z" fill="black"/>
<path d="M763.209 156.995H768.171V158.055H764.519V159.957H767.751V160.988H764.519V163.179C766.14 163.179 767.341 163.119 768.711 162.889L768.851 163.95C767.301 164.19 765.94 164.24 764.049 164.25H763.219V156.995H763.209ZM771.622 166.712H770.332V160.968H768.341V159.917H770.332V156.084H771.622V166.712Z" fill="black"/>
<path d="M773.643 156.724H778.535V159.837H774.944V160.978C776.754 160.978 778.065 160.908 779.575 160.677L779.745 161.728C778.065 161.998 776.624 162.048 774.573 162.048H773.673V158.856H777.254V157.795H773.653V156.734L773.643 156.724ZM778.375 162.749C780.626 162.749 782.006 163.459 782.006 164.71C782.006 165.961 780.626 166.682 778.375 166.672C776.114 166.672 774.744 165.951 774.744 164.71C774.744 163.469 776.114 162.749 778.375 162.749ZM778.375 165.651C779.865 165.651 780.696 165.331 780.706 164.71C780.706 164.1 779.875 163.77 778.375 163.77C776.874 163.77 776.044 164.1 776.044 164.71C776.044 165.321 776.874 165.651 778.375 165.651ZM781.936 162.559H780.626V156.084H781.936V162.559Z" fill="black"/>
<path d="M732.157 177.95H729.016V180.372H733.248V181.443H723.544V180.372H727.726V177.95H724.724V172.876H732.077V173.927H726.025V176.919H732.157V177.96V177.95Z" fill="black"/>
<path d="M740.271 177.17L739.66 178.2C738.45 177.86 737.58 177.12 737.099 176.189C736.639 177.21 735.749 178 734.508 178.381L733.868 177.36C735.539 176.879 736.429 175.649 736.429 174.368V174.298H734.208V173.257H736.429V172.046H737.75V173.257H739.95V174.298H737.73V174.368C737.73 175.538 738.59 176.699 740.271 177.16V177.17ZM735.219 179.051H742.291V182.704H740.981V180.102H735.219V179.051ZM740.981 172.086H742.291V174.778H743.772V175.879H742.291V178.591H740.981V172.096V172.086Z" fill="black"/>
<path d="M750.084 172.426C751.695 172.426 752.895 173.407 752.895 174.808C752.895 176.199 751.695 177.189 750.084 177.189C748.464 177.189 747.253 176.199 747.263 174.808C747.263 173.397 748.464 172.426 750.084 172.426ZM750.084 176.149C750.975 176.149 751.625 175.618 751.625 174.808C751.625 174.007 750.965 173.487 750.084 173.487C749.184 173.487 748.524 173.997 748.534 174.808C748.534 175.618 749.184 176.149 750.084 176.149ZM748.574 177.86H755.516V180.642H749.874V181.523H755.847V182.553H748.584V179.691H754.206V178.871H748.564V177.86H748.574ZM755.516 174.207H756.997V175.288H755.516V177.41H754.206V172.076H755.516V174.207Z" fill="black"/>
<path d="M758.067 172.716H762.959V175.799H759.368V176.899C761.179 176.899 762.489 176.849 764 176.599L764.17 177.65C762.489 177.92 761.049 177.97 758.998 177.97H758.097V174.788H761.679V173.747H758.077V172.716H758.067ZM759.328 178.891H766.361V182.574H759.328V178.891ZM765.09 181.523V179.932H760.618V181.523H765.09ZM766.371 178.401H765.06V172.106H766.371V178.401Z" fill="black"/>
<path d="M756.997 110.01C759.138 110.01 760.878 111.752 760.878 113.893V131.346C760.878 133.487 759.138 135.229 756.997 135.229H748.594L741.101 140.853C740.801 141.073 740.41 141.103 740.08 140.943C739.75 140.783 739.55 140.442 739.55 140.072V135.229H733.738C731.597 135.229 729.856 133.487 729.856 131.346V113.893C729.856 111.752 731.597 110.01 733.738 110.01H756.997ZM741.491 138.121L747.433 133.658C747.763 133.407 748.183 133.267 748.594 133.267H756.997C758.067 133.267 758.937 132.397 758.937 131.326V113.873C758.937 112.802 758.067 111.932 756.997 111.932H733.738C732.668 111.932 731.797 112.802 731.797 113.873V131.326C731.797 132.397 732.668 133.267 733.738 133.267H739.55C740.621 133.267 741.491 134.138 741.491 135.209V138.121ZM745.372 129.885C744.572 129.885 743.922 129.234 743.922 128.434C743.922 127.633 744.572 126.983 745.372 126.983C746.173 126.983 746.823 127.633 746.823 128.434C746.823 129.234 746.173 129.885 745.372 129.885ZM746.343 115.824V123.58C746.343 124.111 745.903 124.551 745.372 124.551C744.842 124.551 744.402 124.111 744.402 123.58V115.824C744.402 115.294 744.842 114.854 745.372 114.854C745.903 114.854 746.343 115.294 746.343 115.824Z" fill="black"/>
<path d="M547.507 162.649H549.238V160.187H550.448V167.262H546.277V160.187H547.507V162.649ZM549.238 166.211V163.68H547.507V166.211H549.238ZM551.479 159.406H552.719V163.319H553.85V159.216H555.1V169.824H553.85V164.39H552.719V169.324H551.479V159.406Z" fill="black"/>
<path d="M562.583 166.652L561.853 167.642C560.702 167.112 559.872 166.051 559.432 164.81C558.972 166.151 558.101 167.282 556.891 167.823L556.161 166.812C557.841 166.061 558.772 164.25 558.772 162.579V162.018H556.501V160.978H558.762V159.436H560.072V160.978H562.303V162.018H560.062V162.579C560.062 164.15 560.942 165.861 562.583 166.642V166.652ZM563.333 159.216H564.644V163.409H566.274V164.51H564.644V169.824H563.333V159.216Z" fill="black"/>
<path d="M571.517 164.58V162.429H572.807V164.54C573.908 164.49 575.028 164.41 576.068 164.26L576.138 165.211C573.928 165.601 571.417 165.651 569.566 165.651L569.446 164.6C570.066 164.6 570.766 164.6 571.517 164.58ZM575.488 160.638C575.488 161.358 575.488 162.419 575.228 163.76L573.937 163.64C574.148 162.539 574.188 161.728 574.208 161.078H570.076V160.007H575.478V160.638H575.488ZM571.036 166.462H572.347V168.573H578.369V169.634H571.036V166.462ZM576.699 159.227H578.029V162.529H579.4V163.63H578.029V167.182H576.699V159.227Z" fill="black"/>
<path d="M580.52 160.137H585.522V164.12H581.881V166.251C583.551 166.251 584.992 166.161 586.642 165.881L586.762 166.952C584.952 167.262 583.371 167.332 581.46 167.332H580.53V163.079H584.191V161.198H580.52V160.137ZM588.783 169.844H587.483V159.216H588.783V169.844Z" fill="black"/>
<path d="M517.726 175.898H518.627C517.826 176.999 517.186 179.241 517.186 181.212C517.186 183.184 517.826 185.435 518.627 186.526H517.726C516.706 185.045 516.136 183.304 516.136 181.212C516.136 179.121 516.696 177.38 517.726 175.898Z" fill="black"/>
<path d="M525.699 180.422L525.219 181.142C524.038 180.722 523.128 179.851 522.678 178.771C522.228 179.972 521.257 180.932 520.017 181.383L519.537 180.652C521.077 180.102 522.198 178.711 522.198 177.24V176.779H519.837V176.019H525.459V176.779H523.128V177.23C523.128 178.581 524.178 179.881 525.699 180.412V180.422ZM521.127 182.123H528.15V185.756H527.23V182.884H521.127V182.123ZM525.129 178.04H527.23V175.308H528.15V181.563H527.23V178.811H525.129V178.04Z" fill="black"/>
<path d="M532.072 178.16V177.32H530.011V176.559H534.893V177.32H532.962V178.16C532.962 180.072 533.752 181.753 535.233 182.523L534.683 183.234C533.632 182.653 532.902 181.633 532.532 180.352C532.172 181.803 531.431 182.944 530.341 183.594L529.761 182.884C531.261 182.053 532.072 180.272 532.072 178.16ZM538.844 185.756H537.954V180.322H536.523V185.225H535.653V175.538H536.523V179.531H537.954V175.308H538.844V185.746V185.756Z" fill="black"/>
<path d="M540.695 175.968H545.427V178.78H541.635V180.231C543.486 180.231 544.826 180.171 546.457 179.901L546.547 180.662C544.866 180.942 543.476 181.012 541.535 181.002H540.725V178.05H544.526V176.709H540.695V175.948V175.968ZM545.066 181.943C547.197 181.943 548.508 182.653 548.508 183.844C548.508 185.035 547.197 185.725 545.066 185.725C542.936 185.725 541.605 185.035 541.605 183.844C541.605 182.653 542.916 181.943 545.066 181.943ZM545.066 185.005C546.657 185.005 547.617 184.575 547.617 183.844C547.617 183.114 546.657 182.673 545.066 182.673C543.476 182.673 542.506 183.114 542.506 183.844C542.506 184.575 543.466 185.015 545.066 185.005ZM549.998 177.73H548.418V179.151H549.998V179.931H548.418V181.642H547.497V175.318H548.418V176.949H549.998V177.73Z" fill="black"/>
<path d="M556.761 180.582L556.291 181.323C555.11 180.892 554.19 180.012 553.73 178.911C553.289 180.152 552.339 181.112 551.119 181.573L550.608 180.842C552.199 180.282 553.249 178.861 553.259 177.25V175.959H554.16V177.29C554.16 178.731 555.24 180.052 556.771 180.592L556.761 180.582ZM552.279 182.283H553.219V184.755H559.282V185.516H552.279V182.273V182.283ZM557.871 175.308H558.791V178.51H560.362V179.301H558.791V183.034H557.871V175.308Z" fill="black"/>
<path d="M570.526 180.672H566.225V181.652H569.306V183.914H563.104V184.925H569.626V185.635H562.203V183.254H568.406V182.343H562.173V181.652H565.314V180.672H561.033V179.961H570.536V180.672H570.526ZM565.254 176.949H562.003V176.229H565.324V175.258H566.225V176.229H569.566V176.949H566.295C566.465 178 568.095 178.65 570.016 178.78L569.736 179.491C567.995 179.341 566.415 178.8 565.775 177.8C565.134 178.79 563.564 179.341 561.813 179.491L561.543 178.78C563.464 178.66 565.094 178 565.264 176.949H565.254Z" fill="black"/>
<path d="M572.067 186.076H571.146L573.888 175.889H574.808L572.067 186.076Z" fill="black"/>
<path d="M579.36 182.743C580.36 182.693 581.39 182.603 582.351 182.463L582.421 183.154C580.03 183.584 577.459 183.604 575.578 183.604L575.458 182.833C576.328 182.833 577.359 182.833 578.449 182.783V180.822H579.36V182.753V182.743ZM578.429 177.449H576.028V176.689H578.449V175.398H579.36V176.689H581.81V177.449H579.36C579.39 178.8 580.5 179.891 582.041 180.332L581.61 181.062C580.36 180.682 579.369 179.881 578.899 178.82C578.449 179.941 577.469 180.772 576.218 181.162L575.768 180.452C577.309 179.991 578.399 178.85 578.429 177.449ZM583.041 175.318H583.961V185.776H583.041V175.318Z" fill="black"/>
<path d="M591.984 180.422L591.504 181.142C590.324 180.722 589.413 179.851 588.963 178.771C588.513 179.972 587.542 180.932 586.302 181.383L585.822 180.652C587.362 180.102 588.483 178.711 588.483 177.24V176.779H586.122V176.019H591.744V176.779H589.413V177.23C589.413 178.581 590.464 179.881 591.984 180.412V180.422ZM587.412 182.123H594.435V185.756H593.515V182.884H587.412V182.123ZM591.414 178.04H593.515V175.308H594.435V181.563H593.515V178.811H591.414V178.04Z" fill="black"/>
<path d="M604.809 181.593H603.889V180.182H601.108V179.421H603.889V178.01H601.218C600.537 179.701 598.927 180.912 596.676 181.573L596.296 180.842C598.817 180.102 600.387 178.681 600.577 176.869H596.826V176.099H601.578C601.578 176.509 601.528 176.899 601.448 177.27H603.889V175.328H604.809V181.603V181.593ZM601.398 181.703C603.509 181.703 604.869 182.453 604.869 183.694C604.869 184.935 603.509 185.706 601.398 185.706C599.287 185.706 597.906 184.945 597.906 183.694C597.906 182.443 599.257 181.703 601.398 181.703ZM601.398 184.955C602.938 184.955 603.949 184.485 603.959 183.694C603.959 182.904 602.948 182.433 601.398 182.443C599.817 182.443 598.817 182.904 598.817 183.694C598.817 184.485 599.817 184.955 601.398 184.955Z" fill="black"/>
<path d="M616.093 184.455H606.54V183.674H610.831V181.703H607.73V178.48H613.972V176.839H607.7V176.079H614.883V179.231H608.64V180.932H615.123V181.693H611.732V183.664H616.083V184.445L616.093 184.455Z" fill="black"/>
<path d="M617.844 186.536H616.944C617.744 185.436 618.384 183.194 618.384 181.223C618.384 179.251 617.744 176.999 616.944 175.909H617.844C618.865 177.39 619.435 179.131 619.435 181.223C619.435 183.314 618.875 185.055 617.844 186.536Z" fill="black"/>
<path d="M552.279 115.094H569.726C571.866 115.094 573.607 116.836 573.607 118.977V131.576C573.607 132.107 573.167 132.547 572.637 132.547C572.106 132.547 571.666 132.107 571.666 131.576V118.977C571.666 117.906 570.796 117.036 569.726 117.036H552.279C551.209 117.036 550.338 117.906 550.338 118.977V131.576C550.338 132.107 549.898 132.547 549.368 132.547C548.838 132.547 548.397 132.107 548.397 131.576V118.977C548.397 116.836 550.138 115.094 552.279 115.094ZM575.538 122.85C575.538 121.779 576.408 120.908 577.478 120.908H580.87C581.78 120.908 582.64 121.339 583.201 122.069L586.592 126.593C586.972 127.093 587.172 127.703 587.172 128.334V134.959C587.172 136.13 586.342 137.11 585.231 137.33V137.381C585.231 140.062 583.061 142.224 580.39 142.224C577.719 142.224 575.548 140.052 575.548 137.381H565.854C565.854 140.062 563.683 142.224 561.012 142.224C559.422 142.224 558.021 141.463 557.131 140.283C556.25 141.453 554.84 142.224 553.249 142.224C550.568 142.224 548.407 140.052 548.407 137.381C548.407 134.709 550.578 132.537 553.249 132.537C554.84 132.537 556.24 133.298 557.131 134.478C558.011 133.308 559.422 132.537 561.012 132.537C563.003 132.537 564.704 133.728 565.454 135.449H575.548V122.85H575.538ZM553.249 140.303C554.29 140.303 555.25 139.752 555.77 138.852C556.29 137.951 556.29 136.84 555.77 135.939C555.25 135.039 554.29 134.488 553.249 134.488C552.209 134.488 551.249 135.039 550.728 135.939C550.208 136.84 550.208 137.951 550.728 138.852C551.249 139.752 552.209 140.303 553.249 140.303ZM555.19 118.977C555.72 118.977 556.16 119.417 556.16 119.948V129.645C556.16 130.175 555.72 130.616 555.19 130.616C554.66 130.616 554.22 130.175 554.22 129.645V119.948C554.22 119.417 554.66 118.977 555.19 118.977ZM563.913 137.401C563.913 136.36 563.363 135.399 562.463 134.879C561.562 134.358 560.452 134.358 559.552 134.879C558.651 135.399 558.101 136.36 558.101 137.401C558.101 138.441 558.651 139.402 559.552 139.922C560.452 140.443 561.562 140.443 562.463 139.922C563.363 139.402 563.913 138.441 563.913 137.401ZM561.002 118.977C561.532 118.977 561.973 119.417 561.973 119.948V129.645C561.973 130.175 561.532 130.616 561.002 130.616C560.472 130.616 560.032 130.175 560.032 129.645V119.948C560.032 119.417 560.472 118.977 561.002 118.977ZM566.814 118.977C567.345 118.977 567.785 119.417 567.785 119.948V129.645C567.785 130.175 567.345 130.616 566.814 130.616C566.284 130.616 565.844 130.175 565.844 129.645V119.948C565.844 119.417 566.284 118.977 566.814 118.977ZM580.38 140.303C581.42 140.303 582.38 139.752 582.901 138.852C583.421 137.951 583.421 136.84 582.901 135.939C582.38 135.039 581.42 134.488 580.38 134.488C579.339 134.488 578.379 135.039 577.859 135.939C577.338 136.84 577.338 137.951 577.859 138.852C578.379 139.752 579.339 140.303 580.38 140.303ZM584.261 126.733L581.64 123.24C581.46 123 581.17 122.85 580.87 122.85H577.478V126.733H584.261ZM585.231 128.674H577.478V133.518C578.289 132.907 579.299 132.547 580.39 132.547C582.38 132.547 584.081 133.738 584.831 135.449C585.061 135.409 585.241 135.209 585.241 134.969V128.664L585.231 128.674Z" fill="black"/>
<path d="M369.47 197.014V192.091H368.45V191.03H374.472V192.091H373.441V196.864C373.952 196.824 374.452 196.774 374.942 196.714L375.012 197.685C372.741 198.055 370.25 198.095 368.299 198.105L368.169 197.024C368.58 197.024 369.02 197.024 369.48 197.024L369.47 197.014ZM372.161 196.944V192.091H370.73V196.994C371.201 196.984 371.681 196.964 372.161 196.944ZM377.043 200.607H375.722V189.999H377.043V200.607Z" fill="black"/>
<path d="M379.274 196.504L378.793 195.453C380.414 195.012 381.474 194.372 382.105 193.591L378.943 193.822L378.753 192.791L382.645 192.641C382.755 192.34 382.825 192.03 382.865 191.7H379.284V190.659H384.256C384.256 193.521 382.785 195.473 379.274 196.494V196.504ZM383.825 196.453C386.036 196.453 387.437 197.214 387.437 198.525C387.437 199.836 386.036 200.587 383.825 200.587C381.564 200.587 380.174 199.846 380.174 198.525C380.174 197.204 381.564 196.453 383.825 196.453ZM383.825 199.586C385.286 199.586 386.136 199.206 386.136 198.535C386.136 197.865 385.286 197.484 383.825 197.484C382.365 197.484 381.494 197.855 381.494 198.535C381.494 199.216 382.325 199.586 383.825 199.586ZM386.086 190.009H387.397V196.303H386.086V190.009Z" fill="black"/>
<path d="M390.028 200.847H388.717L391.458 190.659H392.769L390.028 200.847Z" fill="black"/>
<path d="M394.11 197.034V192.311H393.339V191.26H398.241V192.311H397.481V196.894C397.801 196.864 398.101 196.834 398.381 196.794L398.451 197.745C396.801 198.085 394.61 198.125 393.269 198.125L393.119 197.044C393.409 197.044 393.739 197.044 394.1 197.044L394.11 197.034ZM396.3 196.974V192.311H395.29V197.014C395.62 197.014 395.96 196.994 396.3 196.974ZM402.403 200.617H401.152V195.233H400.092V200.096H398.861V190.219H400.092V194.172H401.152V190.019H402.403V200.627V200.617Z" fill="black"/>
<path d="M404.343 196.504L403.863 195.453C405.483 195.012 406.544 194.372 407.174 193.591L404.013 193.822L403.823 192.791L407.714 192.641C407.824 192.34 407.894 192.03 407.934 191.7H404.353V190.659H409.325C409.325 193.521 407.854 195.473 404.343 196.494V196.504ZM408.895 196.453C411.105 196.453 412.506 197.214 412.506 198.525C412.506 199.836 411.105 200.587 408.895 200.587C406.634 200.587 405.243 199.846 405.243 198.525C405.243 197.204 406.634 196.453 408.895 196.453ZM408.895 199.586C410.355 199.586 411.206 199.206 411.206 198.535C411.206 197.865 410.355 197.484 408.895 197.484C407.434 197.484 406.564 197.855 406.564 198.535C406.564 199.216 407.394 199.586 408.895 199.586ZM411.156 190.009H412.466V196.303H411.156V190.009Z" fill="black"/>
<path d="M415.097 200.847H413.787L416.528 190.659H417.838L415.097 200.847Z" fill="black"/>
<path d="M392.519 211.555H388.337V212.335H391.328V214.827H385.296V215.558H391.628V216.528H384.025V213.937H390.058V213.276H384.015V212.335H387.057V211.555H382.895V210.594H392.529V211.555H392.519ZM386.907 207.842H383.815V206.861H387.047V205.971H388.337V206.861H391.588V207.842H388.477C388.737 208.593 389.978 209.163 392.089 209.263L391.698 210.234C389.788 210.114 388.357 209.593 387.687 208.743C387.027 209.603 385.596 210.124 383.665 210.234L383.295 209.263C385.396 209.163 386.626 208.593 386.897 207.842H386.907Z" fill="black"/>
<path d="M393.249 214.187H396.82V210.494H398.111V214.187H402.912V215.257H393.239V214.187H393.249ZM401.912 208.002C401.912 209.323 401.912 210.804 401.492 213.016L400.171 212.876C400.592 210.814 400.592 209.313 400.592 208.032H394.249V206.981H401.902V208.002H401.912Z" fill="black"/>
<path d="M400.062 145.876C401.592 145.876 402.983 146.777 403.603 148.178L406.124 153.852C406.344 154.353 406.454 154.883 406.454 155.423V169.143C406.454 171.285 404.713 173.026 402.573 173.026H383.185C381.044 173.026 379.304 171.285 379.304 169.143V155.423C379.304 154.883 379.424 154.343 379.634 153.852L382.155 148.178C382.775 146.777 384.166 145.876 385.696 145.876H400.042H400.062ZM388.047 155.574H381.264V169.143C381.264 170.214 382.135 171.085 383.205 171.085H402.593C403.663 171.085 404.533 170.214 404.533 169.143V155.574H396.78V159.456C396.78 160.527 395.91 161.398 394.84 161.398H390.958C389.888 161.398 389.017 160.527 389.017 159.456V155.574H388.047ZM390.108 147.818H385.716C384.956 147.818 384.256 148.268 383.945 148.969L381.875 153.632H389.017L390.108 147.818ZM390.958 155.574V159.456H394.84V155.574H390.958ZM394.8 153.632L393.709 147.818H392.079L390.988 153.632H394.8ZM397.741 153.632H403.903L401.832 148.969C401.522 148.268 400.832 147.818 400.062 147.818H395.68L396.77 153.632H397.741Z" fill="black"/>
<path d="M204.058 253.465V252.955H202.167V251.904H207.059V252.955H205.318V253.465C205.318 255.347 205.958 257.088 207.529 257.908L206.779 258.909C205.758 258.369 205.098 257.428 204.718 256.277C204.358 257.598 203.697 258.659 202.657 259.279L201.847 258.279C203.427 257.388 204.058 255.537 204.058 253.465ZM211.24 261.361H209.99V255.987H208.909V260.861H207.679V250.943H208.909V254.916H209.99V250.763H211.24V261.371V261.361Z" fill="black"/>
<path d="M212.41 258.929H215.982V255.237H217.272V258.929H222.074V260H212.4V258.929H212.41ZM221.074 252.745C221.074 254.066 221.074 255.547 220.654 257.759L219.333 257.618C219.753 255.557 219.753 254.046 219.753 252.775H213.411V251.724H221.064V252.745H221.074Z" fill="black"/>
<path d="M227.596 256.117V253.966H228.887V256.077C229.987 256.037 231.108 255.947 232.148 255.797L232.218 256.748C230.007 257.138 227.496 257.188 225.645 257.188L225.525 256.137C226.146 256.137 226.846 256.137 227.596 256.117ZM231.568 252.174C231.568 252.895 231.568 253.956 231.308 255.296L230.017 255.176C230.227 254.076 230.267 253.265 230.287 252.615H226.156V251.534H231.558V252.164L231.568 252.174ZM227.116 257.998H228.426V260.11H234.449V261.171H227.116V257.998ZM232.778 250.763H234.109V254.066H235.479V255.166H234.109V258.719H232.778V250.763Z" fill="black"/>
<path d="M236.6 251.684H241.602V255.667H237.96V257.798C239.631 257.798 241.071 257.708 242.722 257.428L242.842 258.499C241.031 258.809 239.451 258.879 237.54 258.879H236.61V254.626H240.271V252.745H236.6V251.684ZM244.863 261.391H243.562V250.763H244.863V261.391Z" fill="black"/>
<path d="M247.484 261.601H246.173L248.914 251.414H250.225L247.484 261.601Z" fill="black"/>
<path d="M203.507 276.152H193.803V275.071H197.985V273.34H194.954V269.867H201.066V268.546H194.934V267.496H202.356V270.908H196.254V272.279H202.597V273.35H199.275V275.081H203.507V276.162V276.152Z" fill="black"/>
<path d="M208.539 270.848H209.859V267.035H211.09V276.892H209.859V271.909H208.159C207.579 273.19 206.568 274.32 204.918 275.251L204.177 274.35C205.618 273.53 206.508 272.569 207.018 271.468L204.367 271.739L204.207 270.618L207.388 270.438C207.508 269.997 207.579 269.537 207.609 269.057H204.737V267.996H208.889C208.889 268.997 208.789 269.957 208.539 270.858V270.848ZM212.1 266.775H213.331V277.383H212.1V266.775Z" fill="black"/>
<path d="M217.672 267.535C219.263 267.535 220.434 268.997 220.434 271.288C220.434 273.58 219.263 275.051 217.672 275.051C216.062 275.051 214.891 273.6 214.901 271.288C214.901 268.997 216.062 267.545 217.672 267.535ZM217.672 273.87C218.563 273.87 219.173 272.919 219.173 271.288C219.173 269.657 218.563 268.716 217.672 268.716C216.782 268.716 216.162 269.667 216.162 271.288C216.162 272.909 216.772 273.87 217.672 273.87ZM223.395 277.403H222.074V266.775H223.395V277.403Z" fill="black"/>
<path d="M231.267 272.209L230.547 273.23C229.407 272.78 228.606 271.899 228.156 270.798C227.696 271.969 226.846 272.9 225.615 273.38L224.915 272.349C226.606 271.739 227.476 270.238 227.486 268.647V267.376H228.797V268.647C228.797 270.138 229.637 271.599 231.267 272.209ZM226.836 273.89H228.156V276.122H234.069V277.183H226.836V273.89ZM230.597 270.328H232.528V269.287H230.597V268.226H232.528V266.785H233.828V274.671H232.528V271.379H230.597V270.328Z" fill="black"/>
<path d="M240.131 272.129V269.977H241.421V272.089C242.522 272.049 243.642 271.959 244.683 271.809L244.753 272.759C242.542 273.15 240.031 273.2 238.18 273.2L238.06 272.149C238.68 272.149 239.381 272.149 240.131 272.129ZM244.102 268.186C244.102 268.906 244.102 269.967 243.842 271.308L242.552 271.188C242.762 270.087 242.802 269.277 242.822 268.626H238.69V267.545H244.092V268.176L244.102 268.186ZM239.651 274.01H240.961V276.122H246.983V277.183H239.651V274.01ZM245.313 266.775H246.643V270.077H248.014V271.178H246.643V274.731H245.313V266.775Z" fill="black"/>
<path d="M249.125 267.696H254.126V271.679H250.485V273.81C252.156 273.81 253.596 273.72 255.247 273.44L255.367 274.511C253.556 274.821 251.976 274.891 250.065 274.891H249.135V270.638H252.796V268.756H249.125V267.696ZM257.388 277.403H256.087V266.775H257.388V277.403Z" fill="black"/>
<path d="M230.457 207.612H230.868C232.138 207.612 233.208 208.422 233.609 209.553H233.769C235.909 209.553 237.65 211.295 237.65 213.436V231.86C237.65 234.001 235.909 235.742 233.769 235.742H218.263C216.122 235.742 214.381 234.001 214.381 231.86V213.436C214.381 211.295 216.122 209.553 218.263 209.553H218.423C218.823 208.422 219.903 207.612 221.164 207.612H221.574C222.314 205.901 224.025 204.7 226.016 204.7C228.006 204.7 229.707 205.901 230.457 207.612ZM233.769 212.455C233.769 213.526 232.898 214.397 231.828 214.397H220.204C219.133 214.397 218.263 213.526 218.263 212.455V211.485C217.192 211.485 216.322 212.355 216.322 213.426V231.85C216.322 232.92 217.192 233.791 218.263 233.791H233.769C234.839 233.791 235.709 232.92 235.709 231.85V213.426C235.709 212.355 234.839 211.485 233.769 211.485V212.455ZM221.854 221.862C221.474 222.243 220.864 222.243 220.484 221.862L219.033 220.411C218.653 220.031 218.653 219.42 219.033 219.04C219.413 218.66 220.023 218.66 220.404 219.04L221.174 219.811L223.395 217.589C223.775 217.209 224.385 217.209 224.765 217.589C225.145 217.969 225.145 218.58 224.765 218.96L221.854 221.872V221.862ZM219.713 226.996C219.713 226.195 220.364 225.545 221.164 225.545C221.964 225.545 222.614 226.195 222.614 226.996C222.614 227.797 221.964 228.447 221.164 228.447C220.364 228.447 219.713 227.797 219.713 226.996ZM222.254 209.543H221.164C220.634 209.543 220.194 209.984 220.194 210.514V212.455H231.818V210.514C231.818 209.984 231.378 209.543 230.848 209.543H229.757C229.317 209.543 228.927 209.243 228.817 208.813C228.497 207.562 227.356 206.631 225.996 206.631C224.635 206.631 223.505 207.562 223.175 208.813C223.065 209.243 222.674 209.543 222.234 209.543H222.254ZM225.045 226.025H230.858C231.388 226.025 231.828 226.466 231.828 226.996C231.828 227.526 231.388 227.967 230.858 227.967H225.045C224.515 227.967 224.075 227.526 224.075 226.996C224.075 226.466 224.515 226.025 225.045 226.025ZM226.016 210.514C225.476 210.514 225.045 210.084 225.045 209.543C225.045 209.003 225.476 208.573 226.016 208.573C226.556 208.573 226.986 209.003 226.986 209.543C226.986 210.084 226.556 210.514 226.016 210.514ZM226.986 220.211H230.868C231.398 220.211 231.838 220.651 231.838 221.182C231.838 221.712 231.398 222.152 230.868 222.152H226.986C226.456 222.152 226.016 221.712 226.016 221.182C226.016 220.651 226.456 220.211 226.986 220.211Z" fill="black"/>
<path d="M550.669 433.687H72.2173V409.599" stroke="black" stroke-width="0.75" stroke-miterlimit="10"/>
<path d="M74.9986 411.711L72.2176 410.53L69.4365 411.711L72.2176 405.116L74.9986 411.711Z" fill="black"/>
<path d="M1087.14 320.784V433.657L590.094 433.687" stroke="black" stroke-width="0.75" stroke-miterlimit="10"/>
<path d="M1084.36 322.886L1087.14 321.705L1089.92 322.886L1087.14 316.301L1084.36 322.886Z" fill="black"/>
<path d="M59.3326 352.478H55.121V356.12H53.8305V352.478H49.6689V351.427H59.3426V352.478H59.3326ZM53.7505 347.134H50.5493V346.103H58.4423V347.134H55.2511C55.3411 348.305 56.7316 349.415 58.8324 349.686L58.3522 350.716C56.5516 350.456 55.141 349.626 54.4908 348.475C53.8405 349.626 52.44 350.446 50.6493 350.716L50.1591 349.686C52.2399 349.415 53.6304 348.295 53.7405 347.134H53.7505Z" fill="black"/>
<path d="M69.7266 351.857H65.6251V353.799H64.3346V351.857H60.0229V350.806H69.7266V351.857ZM61.2034 352.828H62.5039V354.849H68.6562V355.91H61.2034V352.828ZM61.2534 345.983H68.4761V349.826H61.2534V345.983ZM67.1957 348.795V347.004H62.5339V348.795H67.1957Z" fill="black"/>
<path d="M71.5073 356.36H70.1968L72.9378 346.173H74.2483L71.5073 356.36Z" fill="black"/>
<path d="M77.7795 345.973C79.4202 345.973 80.6406 346.993 80.6406 348.464C80.6406 349.935 79.4202 350.936 77.7795 350.936C76.1389 350.936 74.9185 349.915 74.9185 348.464C74.9185 346.993 76.1389 345.973 77.7795 345.973ZM77.7795 349.855C78.6899 349.855 79.3501 349.315 79.3501 348.464C79.3501 347.614 78.6899 347.063 77.7795 347.063C76.8492 347.063 76.1889 347.614 76.1889 348.464C76.1889 349.315 76.8492 349.855 77.7795 349.855ZM76.5491 351.697H77.8296V352.777H82.2612V351.697H83.5617V355.99H76.5491V351.697ZM82.2612 354.929V353.798H77.8296V354.929H82.2612ZM83.5617 351.206H82.2512V345.512H83.5617V351.206Z" fill="black"/>
<path d="M85.1023 353.678H88.6736V349.986H89.9641V353.678H94.766V354.749H85.0923V353.678H85.1023ZM93.7656 347.494C93.7656 348.815 93.7656 350.296 93.3454 352.508L92.0249 352.367C92.4451 350.306 92.4451 348.805 92.4451 347.524H86.1027V346.473H93.7556V347.494H93.7656Z" fill="black"/>
<path d="M569.676 434.367H565.464V438H564.174V434.367H560.012V433.317H569.686V434.367H569.676ZM564.094 429.023H560.893V427.993H568.786V429.023H565.594C565.684 430.194 567.075 431.305 569.176 431.575L568.695 432.596C566.895 432.336 565.484 431.505 564.834 430.354C564.184 431.505 562.783 432.336 560.993 432.596L560.502 431.575C562.583 431.305 563.974 430.184 564.084 429.023H564.094Z" fill="black"/>
<path d="M580.07 433.747H575.968V435.689H574.678V433.747H570.366V432.696H580.07V433.747ZM571.547 434.728H572.847V436.749H578.999V437.81H571.547V434.728ZM571.597 427.883H578.819V431.726H571.597V427.883ZM577.539 430.695V428.904H572.877V430.695H577.539Z" fill="black"/>
<path d="M700.215 336.146H567.785V224.614" stroke="black" stroke-width="0.75" stroke-miterlimit="10"/>
<path d="M920.258 260.03V336.115L800.373 336.145" stroke="black" stroke-width="0.75" stroke-miterlimit="10"/>
<path d="M917.478 262.132L920.259 260.951L923.04 262.132L920.259 255.547L917.478 262.132Z" fill="black"/>
<path d="M713.721 330.932V330.121H715.071V330.932C715.071 332.293 715.961 333.554 717.642 334.054L717.002 335.065C715.771 334.684 714.891 333.894 714.411 332.893C713.931 333.994 713.03 334.854 711.76 335.265L711.1 334.234C712.81 333.694 713.721 332.333 713.721 330.932ZM712.9 335.765H719.943V338.527H714.201V339.348H720.263V340.389H712.93V337.556H718.642V336.786H712.9V335.765ZM719.933 335.275H718.642V329.861H719.933V335.275Z" fill="black"/>
<path d="M728.246 337.036L727.465 338.077C726.245 337.517 725.355 336.386 724.854 334.995C724.374 336.486 723.464 337.717 722.173 338.317L721.373 337.226C723.134 336.466 724.164 334.434 724.174 332.383V330.682H725.495V332.383C725.495 334.324 726.515 336.276 728.236 337.016L728.246 337.036ZM729.006 329.851H730.326V340.479H729.006V329.851Z" fill="black"/>
<path d="M735.929 331.732H732.288V330.661H737.37C737.37 333.484 735.529 335.495 732.388 336.416L731.837 335.375C734.268 334.664 735.709 333.343 735.939 331.732H735.929ZM733.428 336.736H734.748V339.208H740.651V340.268H733.438V336.736H733.428ZM740.241 332.913H741.721V333.994H740.241V337.516H738.92V329.861H740.241V332.913Z" fill="black"/>
<path d="M752.005 335.125L752.095 336.086C751.175 336.266 750.224 336.376 749.294 336.446V340.139H747.983V336.516C747.003 336.556 746.073 336.566 745.272 336.566L745.112 335.485C747.023 335.485 749.704 335.445 752.005 335.105V335.125ZM751.355 332.553C751.355 333.864 750.184 334.785 748.574 334.775C746.973 334.775 745.813 333.864 745.813 332.553C745.813 331.232 746.973 330.321 748.574 330.331C750.184 330.331 751.355 331.232 751.355 332.553ZM748.574 333.704C749.474 333.704 750.114 333.264 750.114 332.553C750.114 331.843 749.484 331.372 748.574 331.382C747.693 331.382 747.073 331.823 747.073 332.553C747.073 333.274 747.693 333.714 748.574 333.704ZM752.685 329.871H753.976V340.469H752.685V329.871Z" fill="black"/>
<path d="M758.257 333.224V332.663H755.926V331.622H758.247V330.081H759.548V331.622H761.839V332.663H759.548V333.224C759.548 334.835 760.538 336.566 762.249 337.277L761.538 338.277C760.318 337.767 759.408 336.696 758.917 335.425C758.437 336.776 757.527 337.917 756.286 338.457L755.576 337.447C757.267 336.696 758.247 334.915 758.247 333.224H758.257ZM764.3 340.459H762.999V329.851H764.3V340.459Z" fill="black"/>
<path d="M778.385 337.297H774.183V340.479H772.893V337.297H768.711V336.226H778.385V337.297ZM772.883 332.143H769.611V331.102H772.893V329.851H774.183V331.102H777.474V332.143H774.203C774.333 333.194 775.714 334.284 777.824 334.545L777.354 335.575C775.594 335.355 774.233 334.585 773.543 333.564C772.853 334.595 771.482 335.355 769.711 335.575L769.241 334.545C771.362 334.284 772.753 333.204 772.883 332.143Z" fill="black"/>
<path d="M785.487 334.824L784.837 335.835C783.657 335.445 782.806 334.634 782.346 333.634C781.876 334.744 780.996 335.635 779.735 336.055L779.065 335.025C780.756 334.464 781.656 333.053 781.656 331.672V331.522H779.445V330.481H785.187V331.522H782.986V331.652C782.986 332.943 783.837 334.244 785.477 334.804L785.487 334.824ZM780.746 336.686H787.978V340.459H786.678V337.737H780.746V336.686ZM784.877 332.483H786.678V329.861H787.978V336.195H786.678V333.564H784.877V332.493V332.483Z" fill="black"/>
<path d="M72.5976 301.63C72.3575 301.53 72.0874 301.53 71.8473 301.63L55.9613 308.315C55.241 308.616 54.7708 309.316 54.7708 310.107V329.501C54.7708 330.031 54.3306 330.472 53.8004 330.472C53.2702 330.472 52.8301 330.031 52.8301 329.501V310.107C52.8301 308.546 53.7604 307.135 55.201 306.534L71.087 299.849C71.8073 299.549 72.6176 299.549 73.3478 299.849L89.2239 306.534C90.6644 307.145 91.5948 308.546 91.5948 310.107V329.501C91.5948 330.031 91.1546 330.472 90.6244 330.472C90.0942 330.472 89.654 330.031 89.654 329.501V310.107C89.654 309.326 89.1838 308.626 88.4636 308.315L72.5776 301.63H72.5976ZM58.6523 313.019C58.6523 311.948 59.5226 311.077 60.593 311.077H83.8518C84.9222 311.077 85.7926 311.948 85.7926 313.019V329.501C85.7926 330.031 85.3524 330.472 84.8222 330.472H59.6226C59.0924 330.472 58.6523 330.031 58.6523 329.501V313.019ZM60.593 316.902H83.8518V313.019H60.593V316.902ZM83.8518 318.843H60.593V322.726H83.8518V318.843ZM60.593 328.54H83.8518V324.657H60.593V328.54Z" fill="black"/>
<path d="M560.502 28.6609C592.174 25.9989 624.217 24.6479 656.579 24.6479C757.077 24.6479 854.514 37.7375 947.289 62.3055" stroke="black" stroke-width="0.75" stroke-miterlimit="10"/>
<path d="M560.852 31.4832C559.302 31.6033 557.941 30.4324 557.831 28.8813C557.711 27.3301 558.882 25.9691 560.432 25.8591C561.983 25.739 563.343 26.9098 563.453 28.461C563.573 30.0121 562.403 31.3731 560.852 31.4832Z" fill="black"/>
<path d="M946.449 65.0373C947.959 65.4175 949.49 64.4969 949.87 62.9858C950.25 61.4747 949.33 59.9435 947.819 59.5633C946.308 59.183 944.778 60.1037 944.398 61.6148C944.018 63.1259 944.938 64.657 946.449 65.0373Z" fill="black"/>
<path d="M8.90332 227.987C114.433 154.293 233.108 98.1219 360.697 63.6768" stroke="black" stroke-width="0.75" stroke-miterlimit="10"/>
<path d="M10.624 230.248C9.34347 231.129 7.5828 230.799 6.70247 229.518C5.82214 228.237 6.15226 226.475 7.43275 225.595C8.71323 224.714 10.4739 225.044 11.3542 226.325C12.2346 227.606 11.9044 229.367 10.624 230.248Z" fill="black"/>
<path d="M361.327 66.4583C362.827 66.038 363.708 64.4869 363.287 62.9858C362.867 61.4847 361.317 60.604 359.816 61.0243C358.316 61.4447 357.435 62.9958 357.855 64.4969C358.276 65.998 359.826 66.8786 361.327 66.4583Z" fill="black"/>
<path d="M626.247 0.200146L635.26 0L635.3 1.71125L631.809 1.79131L632.019 11.3983L629.998 11.4384L629.788 1.83134L626.287 1.9114L626.247 0.200146Z" fill="black"/>
<path d="M636.081 2.82197L638.012 2.79195L638.032 4.20298H638.122C638.412 3.21226 639.222 2.64184 640.192 2.63184C640.412 2.63184 640.733 2.64184 640.913 2.67187L640.943 4.5032C640.763 4.45317 640.342 4.39312 640.012 4.40313C638.912 4.42314 638.112 5.20371 638.122 6.2745L638.202 11.2782L636.211 11.3082L636.071 2.82197H636.081Z" fill="black"/>
<path d="M644.874 6.24458C645.464 6.20455 646.675 6.1345 647.045 6.11449V5.42398C647.025 4.59337 646.485 4.10302 645.484 4.11302C644.594 4.11302 644.054 4.53333 643.914 5.13377L641.983 5.15378C642.113 3.71273 643.404 2.61193 645.524 2.59191C647.135 2.5819 648.996 3.22237 649.016 5.48403L649.066 11.1582L647.155 11.1782V10.0073H647.075C646.715 10.7178 645.924 11.3583 644.594 11.3683C642.973 11.3783 641.743 10.5077 641.723 8.83647C641.703 6.91507 643.283 6.34465 644.864 6.22457L644.874 6.24458ZM645.094 9.91726C646.305 9.91726 647.075 9.09666 647.065 8.14597V7.44546C646.695 7.46547 645.594 7.54553 645.194 7.58556C644.244 7.66562 643.654 8.06591 643.654 8.80645C643.654 9.53699 644.264 9.91726 645.094 9.90726V9.91726Z" fill="black"/>
<path d="M653.037 11.138H651.046L651.026 2.65183H652.927V4.09288H653.027C653.407 3.14218 654.278 2.53174 655.548 2.53174C657.299 2.53174 658.459 3.68258 658.459 5.71406L658.479 11.118H656.488L656.478 6.02429C656.478 4.89346 655.858 4.21297 654.818 4.21297C653.757 4.21297 653.017 4.92349 653.017 6.15439V11.128L653.037 11.138Z" fill="black"/>
<path d="M663.821 4.04317C662.971 4.04317 662.341 4.46347 662.341 5.03389C662.341 5.48422 662.681 5.80445 663.541 6.01461L664.982 6.33484C666.572 6.6851 667.353 7.43565 667.353 8.64653C667.343 10.2477 665.942 11.3385 663.721 11.3285C661.55 11.3185 660.28 10.3478 660.09 8.72659H662.111C662.231 9.45712 662.791 9.81739 663.721 9.82739C664.682 9.82739 665.312 9.44712 665.322 8.81665C665.322 8.3263 664.942 8.00606 664.091 7.81592L662.721 7.52571C661.15 7.19547 660.34 6.36486 660.35 5.14397C660.35 3.57282 661.71 2.55208 663.791 2.56208C665.812 2.57209 667.052 3.57282 667.193 5.11395H665.302C665.182 4.46347 664.652 4.05317 663.811 4.04317H663.821Z" fill="black"/>
<path d="M669.073 2.71175L671.024 2.74177L671.004 4.14279H671.124C671.434 3.54235 672.074 2.6517 673.575 2.67172C675.536 2.70174 677.056 4.25287 677.016 7.08494C676.976 9.87698 675.456 11.4481 673.465 11.4181C672.004 11.3981 671.354 10.5175 671.044 9.897H670.964L670.904 14.4203L668.913 14.3903L669.073 2.71175ZM672.935 9.77691C674.265 9.79692 674.975 8.63608 674.995 7.04491C675.015 5.46376 674.345 4.31292 673.015 4.2929C671.714 4.27289 670.994 5.33366 670.974 6.98487C670.954 8.63608 671.654 9.7569 672.945 9.77691H672.935Z" fill="black"/>
<path d="M678.337 7.12501C678.397 4.49308 680.018 2.77183 682.498 2.82186C684.979 2.8719 686.52 4.67322 686.46 7.30514C686.4 9.92705 684.779 11.6483 682.298 11.5883C679.817 11.5382 678.267 9.74692 678.327 7.12501H678.337ZM682.348 9.99711C683.709 10.0271 684.419 8.80624 684.449 7.2551C684.479 5.70397 683.829 4.43304 682.468 4.40302C681.088 4.373 680.378 5.6139 680.348 7.16504C680.318 8.71617 680.968 9.96708 682.348 9.99711Z" fill="black"/>
<path d="M688.241 3.07232L690.172 3.12236L690.132 4.53339H690.222C690.562 3.56268 691.392 3.03229 692.362 3.0523C692.582 3.0523 692.903 3.09233 693.083 3.13236L693.033 4.9637C692.853 4.90366 692.442 4.83361 692.112 4.8236C691.012 4.79358 690.172 5.53412 690.142 6.61491L690.001 11.6186L688.011 11.5585L688.241 3.07232Z" fill="black"/>
<path d="M699.005 4.94343L697.334 4.88339L697.184 9.28661C697.154 10.1072 697.554 10.2873 698.065 10.3074C698.295 10.3174 698.685 10.3074 698.935 10.3074L698.885 11.9385C698.645 11.9686 698.265 11.9986 697.754 11.9886C696.254 11.9385 695.123 11.158 695.183 9.56681L695.344 4.83335L694.143 4.79332L694.193 3.2522L695.394 3.29223L695.464 1.26074L697.454 1.33079L697.384 3.36228L699.055 3.42232L699.005 4.96345V4.94343Z" fill="black"/>
<path d="M703.336 7.10513C703.927 7.09512 705.137 7.08512 705.517 7.08512L705.537 6.39461C705.567 5.564 705.057 5.05363 704.057 5.0136C703.166 4.97357 702.606 5.35385 702.436 5.9643L700.505 5.88424C700.705 4.45319 702.046 3.41243 704.177 3.5025C705.787 3.57255 707.618 4.31309 707.518 6.57474L707.278 12.2489L705.367 12.1688L705.417 10.998H705.347C704.957 11.6885 704.127 12.2889 702.796 12.2289C701.176 12.1588 699.985 11.2281 700.055 9.55692C700.135 7.63552 701.746 7.14516 703.326 7.10513H703.336ZM703.376 10.7878C704.587 10.8379 705.397 10.0673 705.437 9.1166L705.457 8.41609C705.097 8.41609 703.987 8.44611 703.587 8.46612C702.636 8.49615 702.016 8.87642 701.986 9.61696C701.956 10.3475 702.536 10.7578 703.366 10.7878H703.376Z" fill="black"/>
<path d="M713.78 5.57428L712.11 5.49422L711.9 9.89744C711.86 10.718 712.26 10.8982 712.76 10.9382C712.99 10.9582 713.39 10.9382 713.63 10.9382L713.55 12.5694C713.31 12.5994 712.93 12.6194 712.42 12.5994C710.919 12.5294 709.799 11.7388 709.879 10.1376L710.099 5.40415L708.898 5.34411L708.968 3.80298L710.169 3.86303L710.269 1.83154L712.26 1.92161L712.16 3.95309L713.83 4.03315L713.76 5.57428H713.78Z" fill="black"/>
<path d="M715.471 4.11296L717.462 4.21303L717.042 12.6992L715.051 12.5992L715.471 4.11296ZM716.641 0.790527C717.262 0.820549 717.762 1.33092 717.742 1.93136C717.712 2.5318 717.162 2.98213 716.541 2.95211C715.901 2.92209 715.401 2.41171 715.431 1.82128C715.461 1.22084 716.001 0.760505 716.641 0.800535V0.790527Z" fill="black"/>
<path d="M718.872 8.58631C719.022 5.96439 720.713 4.30318 723.184 4.44328C725.655 4.58338 727.135 6.43474 726.975 9.05665C726.825 11.6786 725.145 13.3298 722.674 13.1897C720.203 13.0496 718.722 11.2082 718.872 8.58631ZM722.774 11.5985C724.124 11.6786 724.875 10.4777 724.965 8.93656C725.055 7.38543 724.454 6.09449 723.094 6.01443C721.713 5.93437 720.963 7.14526 720.873 8.69639C720.783 10.2475 721.393 11.5185 722.764 11.5985H722.774Z" fill="black"/>
<path d="M730.377 13.4801L728.396 13.35L728.956 4.88379L730.857 5.01388L730.757 6.45494H730.857C731.307 5.53426 732.207 4.99387 733.478 5.08394C735.229 5.20402 736.299 6.43492 736.169 8.46641L735.809 13.8603L733.828 13.7303L734.168 8.64654C734.248 7.51571 733.668 6.79519 732.638 6.72513C731.587 6.65508 730.797 7.31557 730.717 8.53646L730.387 13.5001L730.377 13.4801Z" fill="black"/>
<path d="M745.102 3.14229L747.823 11.6085H747.953L751.955 3.67267L754.436 3.86281L753.555 15.1511L751.605 15.001L752.205 7.23528H752.105L748.374 14.7207L746.923 14.6107L744.392 6.60482H744.302L743.702 14.3905L741.751 14.2404L742.631 2.95215L745.112 3.14229H745.102Z" fill="black"/>
<path d="M758.878 10.6579C759.468 10.668 760.678 10.728 761.048 10.738L761.108 10.0575C761.179 9.2269 760.688 8.69651 759.698 8.60645C758.808 8.52639 758.237 8.88665 758.027 9.47708L756.107 9.30696C756.377 7.88592 757.767 6.9052 759.888 7.09534C761.489 7.23544 763.289 8.06605 763.089 10.3177L762.589 15.9818L760.688 15.8117L760.788 14.6509H760.718C760.288 15.3214 759.448 15.8718 758.117 15.7617C756.507 15.6216 755.356 14.6308 755.506 12.9596C755.676 11.0482 757.307 10.6279 758.888 10.668L758.878 10.6579ZM758.748 14.3306C759.958 14.4407 760.798 13.7102 760.878 12.7595L760.938 12.059C760.578 12.039 759.468 12.0189 759.068 12.0189C758.117 12.0089 757.487 12.3492 757.417 13.0897C757.357 13.8203 757.917 14.2606 758.748 14.3306Z" fill="black"/>
<path d="M766.511 16.3521L764.53 16.162L765.35 7.71582L767.241 7.89595L767.101 9.327H767.201C767.681 8.42634 768.601 7.91597 769.862 8.03605C771.602 8.20618 772.643 9.4671 772.443 11.4986L771.923 16.8725L769.942 16.6824L770.432 11.6087C770.542 10.4778 769.992 9.7473 768.961 9.64723C767.911 9.54716 767.101 10.1776 766.981 11.3985L766.501 16.3421L766.511 16.3521Z" fill="black"/>
<path d="M777.194 12.429C777.785 12.449 778.995 12.529 779.365 12.549L779.435 11.8685C779.525 11.0379 779.045 10.4975 778.045 10.3975C777.164 10.3074 776.584 10.6476 776.364 11.2381L774.443 11.0379C774.733 9.6269 776.134 8.6662 778.255 8.89637C779.855 9.06649 781.626 9.91711 781.396 12.1688L780.796 17.8129L778.895 17.6127L779.015 16.4519H778.945C778.505 17.1124 777.655 17.6528 776.324 17.5127C774.713 17.3425 773.583 16.3318 773.763 14.6706C773.963 12.7592 775.604 12.3789 777.174 12.439L777.194 12.429ZM777.004 16.1016C778.205 16.2317 779.065 15.5112 779.165 14.5705L779.235 13.87C778.875 13.85 777.775 13.8 777.374 13.8C776.424 13.7699 775.784 14.1002 775.704 14.8407C775.624 15.5712 776.184 16.0116 777.014 16.1016H777.004Z" fill="black"/>
<path d="M782.537 18.7436L784.517 18.9738C784.577 19.7343 785.228 20.1646 786.238 20.2747C787.438 20.4148 788.269 19.9845 788.409 18.7436L788.589 17.1424H788.489C788.119 17.7128 787.348 18.4134 785.898 18.2532C783.937 18.0331 782.577 16.4419 782.887 13.6899C783.207 10.9179 784.907 9.59692 786.858 9.81708C788.349 9.9872 788.869 10.9579 789.119 11.5984H789.219L789.379 10.2174L791.33 10.4375L790.349 19.0138C790.099 21.1754 788.319 22.026 786.028 21.7658C783.797 21.5156 782.497 20.3548 782.537 18.7436ZM786.618 16.7421C787.889 16.8922 788.729 16.0116 788.909 14.3904C789.089 12.7892 788.499 11.6384 787.208 11.4983C785.878 11.3482 785.067 12.399 784.897 13.9401C784.717 15.5012 785.298 16.602 786.618 16.7521V16.7421Z" fill="black"/>
<path d="M792.51 14.8908C792.83 12.2889 794.621 10.7178 797.022 11.008C799.083 11.2582 800.713 12.7693 800.343 15.7314L800.273 16.3419L794.401 15.6213C794.241 17.0724 794.991 18.0231 796.272 18.1832C797.132 18.2933 797.762 17.9831 798.082 17.5127L800.013 17.7529C799.483 19.1639 798.022 19.9645 796.062 19.7243C793.521 19.4141 792.18 17.5327 792.5 14.9008L792.51 14.8908ZM798.543 14.7707C798.673 13.6199 798.002 12.6892 796.872 12.5491C795.682 12.399 794.771 13.2196 794.581 14.2804L798.553 14.7707H798.543Z" fill="black"/>
<path d="M802.604 11.7788L804.485 12.029L804.294 13.46H804.395C804.875 12.5594 805.785 12.089 806.905 12.2391C808.046 12.3893 808.786 13.0798 808.976 14.0805H809.066C809.566 13.1998 810.577 12.7195 811.797 12.8796C813.338 13.0798 814.298 14.2206 814.048 16.102L813.308 21.7561L811.327 21.4959L812.027 16.142C812.167 15.0912 811.587 14.5408 810.787 14.4307C809.817 14.3007 809.166 14.8911 809.046 15.8318L808.356 21.0956L806.425 20.8454L807.136 15.4115C807.246 14.5408 806.745 13.9004 805.905 13.7903C805.055 13.6802 804.264 14.2906 804.124 15.3314L803.454 20.4551L801.483 20.195L802.584 11.7788H802.604Z" fill="black"/>
<path d="M815.529 17.843C815.899 15.2511 817.72 13.71 820.121 14.0502C822.181 14.3404 823.772 15.8915 823.352 18.8437L823.262 19.4542L817.41 18.6235C817.229 20.0746 817.95 21.0353 819.23 21.2154C820.091 21.3355 820.731 21.0453 821.051 20.575L822.972 20.8452C822.411 22.2462 820.931 23.0168 818.98 22.7365C816.449 22.3763 815.139 20.4749 815.519 17.843H815.529ZM821.561 17.843C821.721 16.7021 821.071 15.7514 819.931 15.5913C818.74 15.4212 817.82 16.2118 817.6 17.2826L821.561 17.843Z" fill="black"/>
<path d="M826.363 23.6373L824.392 23.3371L825.663 14.9409L827.543 15.2211L827.333 16.6522L827.433 16.6722C827.953 15.7915 828.904 15.3212 830.164 15.5113C831.895 15.7715 832.865 17.0925 832.565 19.104L831.755 24.4479L829.784 24.1476L830.544 19.104C830.714 17.9831 830.204 17.2226 829.174 17.0625C828.133 16.9023 827.283 17.4928 827.103 18.7137L826.363 23.6373Z" fill="black"/>
<path d="M838.948 18.5234L837.297 18.2632L836.617 22.6164C836.487 23.427 836.867 23.6472 837.367 23.7372C837.597 23.7772 837.987 23.8073 838.237 23.8373L837.987 25.4485C837.747 25.4485 837.367 25.4385 836.857 25.3584C835.376 25.1282 834.346 24.2176 834.596 22.6364L835.326 17.953L834.136 17.7629L834.376 16.2417L835.566 16.4319L835.876 14.4204L837.847 14.7306L837.537 16.7421L839.188 17.0023L838.948 18.5234Z" fill="black"/>
<path d="M847.811 15.031L848.991 15.2211C847.711 16.4921 846.381 19.2941 845.95 21.886C845.52 24.4779 845.87 27.5602 846.681 29.1713L845.5 28.9812C844.48 26.8196 844.12 24.4079 844.57 21.6558C845.02 18.9038 846.14 16.7423 847.801 15.021L847.811 15.031Z" fill="black"/>
<path d="M850.252 15.9414L858.655 17.3825L858.445 18.6134L854.944 18.0129L853.243 27.9502L851.853 27.71L853.553 17.7727L850.042 17.1723L850.252 15.9414Z" fill="black"/>
<path d="M862.417 18.0734L864.497 27.9206L864.628 27.9406L870.05 19.4644L871.71 19.7646L869.679 30.8928L868.379 30.6526L869.91 22.2465L869.799 22.2264L864.808 30.0021L863.577 29.782L861.656 20.7354L861.556 20.7153L860.016 29.1315L858.715 28.8913L860.746 17.7632L862.407 18.0634L862.417 18.0734Z" fill="black"/>
<path d="M877.793 22.0761C876.332 21.7959 875.212 22.3764 875.011 23.4271C874.781 24.598 876.002 25.2885 876.792 25.6588L877.853 26.1791C878.973 26.7095 880.794 27.7703 880.393 29.8418C880.043 31.6531 878.313 32.784 875.752 32.2836C873.361 31.8132 872.11 30.2921 872.34 28.4208L873.761 28.701C873.631 29.9719 874.671 30.7825 875.992 31.0327C877.522 31.3329 878.823 30.7625 879.053 29.5616C879.263 28.4808 878.313 27.8604 877.202 27.31L875.922 26.6695C874.271 25.8289 873.361 24.7281 873.651 23.227C874.011 21.3556 875.922 20.4349 878.073 20.8552C880.233 21.2755 881.534 22.8367 881.264 24.5379L879.923 24.2777C880.013 23.1569 879.133 22.3363 877.802 22.0761H877.793Z" fill="black"/>
<path d="M881.924 35.646L880.753 35.4158C882.084 34.1949 883.504 31.4329 884.015 28.851C884.525 26.2691 884.285 23.1768 883.524 21.5356L884.695 21.7658C885.645 23.9674 885.925 26.3892 885.375 29.1212C884.825 31.8532 883.635 33.9847 881.914 35.646H881.924Z" fill="black"/>
<path d="M42.7461 175.799L44.6068 174.648L50.7291 180.662L50.8192 180.602L48.2982 172.366L49.9988 171.315L56.2412 177.26L56.3212 177.21L53.6902 169.034L55.5509 167.883L58.7822 179.191L57.0615 180.252L50.9592 174.668L50.8792 174.718L53.12 182.684L51.3994 183.744L42.7561 175.779L42.7461 175.799Z" fill="black"/>
<path d="M61.6835 171.636C62.1737 171.295 63.1741 170.625 63.4842 170.415L63.1241 169.834C62.6939 169.124 61.9836 168.984 61.1233 169.494C60.363 169.954 60.1029 170.575 60.293 171.175L58.6424 172.176C58.0221 170.875 58.5624 169.264 60.383 168.163C61.7636 167.332 63.6943 166.942 64.8647 168.874L67.7958 173.737L66.1652 174.718L65.565 173.717L65.505 173.747C65.555 174.538 65.2049 175.488 64.0644 176.179C62.6739 177.02 61.1733 176.889 60.313 175.458C59.3226 173.817 60.393 172.516 61.6835 171.616V171.636ZM63.7443 174.678C64.7847 174.057 65.0248 172.967 64.5346 172.156L64.1645 171.556C63.8644 171.756 62.954 172.386 62.6339 172.626C61.8536 173.177 61.5535 173.827 61.9336 174.458C62.3138 175.088 63.024 175.108 63.7343 174.678H63.7443Z" fill="black"/>
<path d="M65.1445 165.431L66.8051 164.44L67.5254 165.651L67.6055 165.611C67.3654 164.61 67.7855 163.71 68.6158 163.219C68.8059 163.109 69.086 162.969 69.2661 162.899L70.1964 164.47C70.0164 164.51 69.6262 164.68 69.3361 164.84C68.3958 165.401 68.0856 166.482 68.6258 167.402L71.1768 171.695L69.4662 172.716L65.1245 165.421L65.1445 165.431Z" fill="black"/>
<path d="M72.0474 166.321C70.7269 164.06 71.1871 161.718 73.2779 160.497C75.0686 159.446 77.2794 159.656 78.79 162.228L79.1001 162.759L73.9982 165.751C74.7585 167.002 75.9289 167.302 77.0393 166.652C77.7896 166.211 78.0997 165.581 78.0697 165.02L79.7504 164.04C80.1805 165.491 79.5103 167.002 77.8096 168.003C75.6088 169.293 73.398 168.623 72.0575 166.331L72.0474 166.321ZM76.7692 162.569C76.179 161.578 75.0786 161.238 74.0882 161.818C73.0578 162.428 72.8277 163.619 73.3179 164.59L76.7692 162.569Z" fill="black"/>
<path d="M84.1418 164.12L82.4112 165.111L76.749 155.293L78.4397 154.323L80.5805 158.025L80.6705 157.975C80.5305 156.945 80.9506 156.024 82.081 155.364C83.6016 154.483 85.1822 154.893 86.2126 156.674L88.9136 161.368L87.193 162.359L84.642 157.935C84.0718 156.935 83.2015 156.674 82.2811 157.205C81.3508 157.745 81.0407 158.736 81.6509 159.807L84.1418 164.12Z" fill="black"/>
<path d="M88.2432 156.905C86.9527 154.613 87.4629 152.301 89.6237 151.081C91.7845 149.86 94.0254 150.61 95.3159 152.902C96.6064 155.184 96.0962 157.485 93.9353 158.706C91.7745 159.927 89.5337 159.186 88.2432 156.895V156.905ZM93.155 157.325C94.3355 156.655 94.3255 155.244 93.5552 153.893C92.7849 152.542 91.5845 151.781 90.404 152.452C89.2036 153.132 89.2236 154.553 89.9938 155.914C90.7641 157.275 91.9546 158.006 93.155 157.325Z" fill="black"/>
<path d="M99.4576 145.726L101.198 144.766L105.3 152.201L103.619 153.132L102.889 151.811L102.809 151.851C102.929 152.862 102.469 153.882 101.348 154.503C99.8878 155.313 98.3172 154.863 97.3268 153.072L94.7158 148.338L96.4565 147.378L98.9174 151.841C99.4376 152.781 100.328 153.072 101.178 152.601C101.949 152.171 102.459 151.16 101.829 150.029L99.4476 145.726H99.4576Z" fill="black"/>
<path d="M106.561 143.395C105.81 143.805 105.47 144.475 105.74 144.976C105.95 145.366 106.42 145.486 107.271 145.256L108.681 144.836C110.252 144.375 111.292 144.656 111.873 145.716C112.633 147.127 111.933 148.759 109.992 149.819C108.091 150.85 106.511 150.62 105.56 149.289L107.331 148.328C107.791 148.899 108.451 148.949 109.272 148.498C110.112 148.038 110.482 147.398 110.182 146.837C109.942 146.407 109.452 146.317 108.631 146.557L107.291 146.957C105.76 147.418 104.64 147.087 104.07 146.017C103.319 144.636 104.01 143.094 105.84 142.094C107.621 141.123 109.192 141.403 110.052 142.684L108.391 143.585C107.981 143.084 107.321 142.974 106.571 143.375L106.561 143.395Z" fill="black"/>
<path d="M112.212 143.665C110.982 141.353 111.542 139.042 113.683 137.901C115.514 136.92 117.714 137.23 119.115 139.862L119.405 140.403L114.193 143.185C114.893 144.456 116.054 144.816 117.194 144.206C117.954 143.795 118.305 143.185 118.295 142.614L120.005 141.704C120.375 143.165 119.645 144.656 117.904 145.587C115.654 146.787 113.473 146.027 112.222 143.675L112.212 143.665ZM117.084 140.103C116.534 139.082 115.453 138.711 114.443 139.252C113.383 139.812 113.103 141.003 113.563 141.984L117.084 140.103Z" fill="black"/>
<path d="M123.147 129.805L129.909 135.579L130.029 135.519L129.259 126.653L131.48 125.512L136.672 135.579L134.931 136.48L131.36 129.555L131.27 129.605L132.03 137.941L130.73 138.611L124.367 133.127L124.287 133.167L127.869 140.122L126.128 141.023L120.936 130.956L123.157 129.815L123.147 129.805Z" fill="black"/>
<path d="M138.773 128.944C139.283 128.644 140.333 128.043 140.663 127.863L140.353 127.253C139.973 126.512 139.283 126.312 138.393 126.763C137.602 127.163 137.292 127.763 137.442 128.374L135.722 129.244C135.201 127.893 135.862 126.342 137.762 125.381C139.193 124.661 141.154 124.411 142.174 126.432L144.725 131.496L143.024 132.357L142.504 131.316L142.444 131.346C142.444 132.136 142.014 133.057 140.824 133.658C139.383 134.388 137.882 134.148 137.132 132.657C136.272 130.946 137.432 129.735 138.793 128.934L138.773 128.944ZM140.593 132.136C141.674 131.596 142.004 130.525 141.574 129.675L141.254 129.054C140.944 129.234 139.983 129.795 139.653 130.005C138.833 130.495 138.483 131.126 138.813 131.786C139.143 132.447 139.843 132.517 140.593 132.136Z" fill="black"/>
<path d="M148.276 129.755L146.485 130.635L142.734 123.01L144.445 122.169L145.085 123.46L145.175 123.41C145.105 122.389 145.615 121.459 146.755 120.898C148.326 120.128 149.877 120.658 150.777 122.479L153.168 127.333L151.377 128.214L149.126 123.63C148.626 122.609 147.766 122.279 146.835 122.74C145.885 123.21 145.535 124.171 146.075 125.281L148.276 129.745V129.755Z" fill="black"/>
<path d="M155.269 120.788C155.789 120.498 156.85 119.918 157.18 119.738L156.88 119.127C156.52 118.377 155.819 118.167 154.919 118.607C154.119 118.997 153.808 119.598 153.939 120.208L152.198 121.049C151.698 119.688 152.388 118.136 154.299 117.216C155.749 116.515 157.71 116.305 158.69 118.337L161.171 123.45L159.451 124.281L158.94 123.23L158.88 123.26C158.86 124.061 158.42 124.971 157.22 125.552C155.759 126.262 154.269 126.002 153.538 124.491C152.698 122.76 153.889 121.569 155.259 120.788H155.269ZM157.04 124.011C158.13 123.48 158.48 122.42 158.06 121.569L157.75 120.939C157.43 121.109 156.469 121.659 156.129 121.869C155.309 122.35 154.939 122.97 155.269 123.631C155.589 124.291 156.289 124.371 157.05 124.011H157.04Z" fill="black"/>
<path d="M163.152 123.34L164.952 122.49C165.403 123.11 166.183 123.12 167.093 122.69C168.184 122.169 168.654 121.369 168.124 120.248L167.433 118.787L167.343 118.827C167.343 119.517 167.053 120.518 165.743 121.139C163.962 121.979 161.971 121.349 160.781 118.857C159.59 116.335 160.341 114.324 162.111 113.483C163.462 112.842 164.422 113.383 164.962 113.803L165.052 113.763L164.452 112.502L166.223 111.662L169.914 119.457C170.845 121.419 169.784 123.09 167.703 124.071C165.673 125.031 163.962 124.741 163.152 123.35V123.34ZM165.563 119.497C166.723 118.947 166.963 117.766 166.263 116.285C165.573 114.824 164.462 114.173 163.302 114.724C162.091 115.294 161.961 116.615 162.621 118.016C163.292 119.437 164.372 120.058 165.563 119.497Z" fill="black"/>
<path d="M169.604 114.814C168.504 112.442 169.194 110.161 171.385 109.14C173.276 108.269 175.447 108.69 176.697 111.402L176.957 111.962L171.595 114.444C172.225 115.755 173.366 116.175 174.536 115.635C175.326 115.274 175.697 114.674 175.717 114.104L177.477 113.283C177.767 114.764 176.947 116.215 175.156 117.036C172.836 118.106 170.705 117.226 169.594 114.814H169.604ZM174.666 111.532C174.176 110.491 173.116 110.051 172.075 110.531C170.985 111.031 170.645 112.202 171.045 113.213L174.666 111.532Z" fill="black"/>
<path d="M176.527 106.858L178.258 106.078L178.848 107.389L178.948 107.349C178.868 106.318 179.398 105.437 180.438 104.977C181.489 104.506 182.479 104.707 183.169 105.447L183.249 105.407C183.209 104.386 183.81 103.446 184.94 102.935C186.351 102.295 187.771 102.765 188.551 104.486L190.892 109.68L189.072 110.501L186.851 105.587C186.421 104.627 185.64 104.456 184.9 104.787C184.01 105.187 183.77 106.028 184.16 106.898L186.341 111.732L184.56 112.532L182.309 107.539C181.949 106.738 181.189 106.458 180.408 106.808C179.618 107.158 179.278 108.099 179.708 109.05L181.839 113.763L180.028 114.584L176.537 106.848L176.527 106.858Z" fill="black"/>
<path d="M190.732 105.177C189.672 102.775 190.412 100.494 192.633 99.5129C194.544 98.6723 196.714 99.1426 197.925 101.885L198.175 102.445L192.743 104.837C193.353 106.168 194.484 106.608 195.664 106.088C196.464 105.737 196.845 105.147 196.885 104.577L198.665 103.796C198.925 105.287 198.075 106.718 196.264 107.519C193.913 108.549 191.793 107.619 190.722 105.187L190.732 105.177ZM195.874 101.985C195.404 100.924 194.344 100.464 193.293 100.934C192.193 101.414 191.823 102.585 192.203 103.606L195.874 101.995V101.985Z" fill="black"/>
<path d="M202.977 104.416L201.146 105.207L197.795 97.4011L199.546 96.6506L200.116 97.9816L200.216 97.9415C200.196 96.9108 200.756 96.0201 201.926 95.5198C203.537 94.8293 205.058 95.4397 205.858 97.3111L207.989 102.285L206.158 103.075L204.147 98.3819C203.697 97.3411 202.857 96.9608 201.906 97.3711C200.936 97.7914 200.526 98.7321 201.016 99.8629L202.977 104.436V104.416Z" fill="black"/>
<path d="M211 93.4281L209.46 94.0785L211.17 98.1415C211.49 98.8921 211.92 98.8921 212.401 98.7019C212.621 98.6219 212.971 98.4417 213.191 98.3216L213.821 99.8227C213.621 99.9528 213.281 100.143 212.811 100.343C211.43 100.924 210.08 100.693 209.46 99.2223L207.619 94.8591L206.508 95.3295L205.908 93.9084L207.019 93.4381L206.228 91.5567L208.059 90.7861L208.849 92.6675L210.39 92.017L210.99 93.4381L211 93.4281Z" fill="black"/>
<path d="M216.692 85.7826L217.792 85.3223C217.362 87.0735 217.712 90.1658 218.723 92.5976C219.733 95.0294 221.654 97.4711 223.184 98.4118L222.084 98.8722C220.073 97.5712 218.493 95.7099 217.432 93.128C216.372 90.5461 216.182 88.1143 216.692 85.7726V85.7826Z" fill="black"/>
<path d="M228.386 93.9888C225.685 95.0696 222.904 93.7786 221.574 90.4562C220.243 87.1338 221.354 84.2717 224.055 83.1909C226.746 82.1101 229.537 83.4011 230.867 86.7235C232.198 90.0459 231.077 92.908 228.386 93.9888ZM227.896 92.7679C229.797 92.0073 230.677 89.9458 229.597 87.2338C228.516 84.5219 226.446 83.6512 224.545 84.4118C222.644 85.1723 221.764 87.2338 222.844 89.9458C223.925 92.6578 225.995 93.5284 227.896 92.7679Z" fill="black"/>
<path d="M232.438 79.9984L239.381 87.2837L239.501 87.2337L239.651 77.1664L241.222 76.5459L245.343 87.0836L244.113 87.564L241.002 79.6081L240.901 79.6482L240.741 88.8849L239.581 89.3453L233.189 82.6604L233.099 82.7004L236.22 90.6662L234.989 91.1466L230.868 80.6089L232.438 79.9884V79.9984Z" fill="black"/>
<path d="M247.624 75.3152C246.223 75.8456 245.583 76.9263 245.963 77.9271C246.383 79.0479 247.784 78.9878 248.654 78.8978L249.835 78.7877C251.075 78.6476 253.186 78.5976 253.926 80.579C254.577 82.3103 253.696 84.1816 251.245 85.1023C248.954 85.9629 247.094 85.3225 246.303 83.6112L247.664 83.1009C248.214 84.2517 249.535 84.3918 250.795 83.9114C252.256 83.361 253.066 82.1902 252.636 81.0394C252.246 80.0086 251.115 79.9786 249.875 80.0987L248.444 80.2288C246.594 80.3789 245.243 79.9285 244.703 78.4875C244.023 76.6962 245.173 74.9149 247.224 74.1443C249.285 73.3637 251.215 74.0042 251.876 75.6054L250.595 76.0857C250.085 75.085 248.894 74.8448 247.624 75.3252V75.3152Z" fill="black"/>
<path d="M257.768 84.2615L256.617 84.6918L255.327 70.6915L256.477 70.2612L257.768 84.2615Z" fill="black"/>
<path d="M257.277 70.5115L258.628 70.0212L263.96 77.8569L264.06 77.8169L263.2 68.3699L264.69 67.8296L270.062 75.6453L270.152 75.6152L269.252 66.1783L270.602 65.688L271.533 77.4065L270.162 77.9069L264.79 70.3114L264.71 70.3414L265.41 79.6182L264.04 80.1185L257.277 70.5115Z" fill="black"/>
<path d="M273.884 64.5972L280.526 72.1627L280.656 72.1226L281.217 62.0753L282.817 61.5249L286.509 72.2227L285.258 72.653L282.477 64.5771L282.377 64.6172L281.837 73.8339L280.656 74.2442L274.544 67.3091L274.454 67.3392L277.245 75.4251L275.995 75.8554L272.303 65.1576L273.904 64.6072L273.884 64.5972Z" fill="black"/>
<path d="M289.209 60.5041C287.799 60.9744 287.109 62.0352 287.459 63.046C287.839 64.1768 289.239 64.1768 290.11 64.1167L291.29 64.0467C292.531 63.9566 294.631 63.9866 295.302 65.9881C295.892 67.7394 294.942 69.5707 292.461 70.4013C290.15 71.1819 288.309 70.4614 287.589 68.7301L288.959 68.2698C289.469 69.4406 290.78 69.6308 292.05 69.2004C293.531 68.7101 294.381 67.5693 293.991 66.4084C293.641 65.3576 292.511 65.2976 291.28 65.3576L289.85 65.4277C287.999 65.5077 286.668 65.0074 286.178 63.5463C285.568 61.735 286.778 60.0037 288.859 59.3032C290.94 58.6027 292.851 59.3132 293.451 60.9344L292.15 61.3747C291.68 60.354 290.5 60.0738 289.219 60.5041H289.209Z" fill="black"/>
<path d="M299.504 70.2911L298.373 70.6614C298.923 68.9402 298.803 65.8379 297.983 63.3361C297.163 60.8342 295.422 58.2623 293.961 57.2116L295.092 56.8413C296.993 58.2824 298.433 60.2538 299.303 62.9057C300.174 65.5577 300.184 67.9895 299.504 70.2911Z" fill="black"/>
<path d="M161.451 276.182C151.638 281.916 142.004 287.82 132.55 293.885" stroke="black" stroke-width="0.5" stroke-miterlimit="10"/>
<path d="M319.271 204.049C311.338 206.791 303.485 209.633 295.692 212.565" stroke="black" stroke-width="0.5" stroke-miterlimit="10"/>
<path d="M316.37 202.208L318.42 204.429L318.25 207.441L323.502 202.588L316.37 202.208Z" fill="black"/>
<path d="M296.752 209.293L296.592 212.305L298.643 214.517L291.5 214.147L296.752 209.293Z" fill="black"/>
<path d="M491.816 161.358C483.583 162.639 475.39 164.02 467.247 165.491" stroke="black" stroke-width="0.5" stroke-miterlimit="10"/>
<path d="M489.285 159.036L490.916 161.578L490.216 164.51L496.248 160.677L489.285 159.036Z" fill="black"/>
<path d="M468.877 162.469L468.167 165.401L469.798 167.943L462.845 166.302L468.877 162.469Z" fill="black"/>
<path d="M673.405 148.849C667.813 148.759 662.201 148.719 656.579 148.719C650.957 148.719 645.294 148.759 639.672 148.849" stroke="black" stroke-width="0.5" stroke-miterlimit="10"/>
<path d="M851.223 166.472C839.888 164.36 828.454 162.429 816.93 160.688" stroke="black" stroke-width="0.5" stroke-miterlimit="10"/>
<path d="M1017.5 212.565C1008.35 209.123 999.109 205.81 989.765 202.628" stroke="black" stroke-width="0.5" stroke-miterlimit="10"/>
<path d="M1016.44 209.303L1016.6 212.325L1014.54 214.537L1021.69 214.156L1016.44 209.303Z" fill="black"/>
<path d="M1186.11 297.458C1176.16 290.953 1165.98 284.618 1155.61 278.474" stroke="black" stroke-width="0.5" stroke-miterlimit="10"/>
<path d="M1185.81 294.025L1185.3 296.997L1182.81 298.698L1189.85 299.919L1185.81 294.025Z" fill="black"/>
<path d="M1158.82 277.233L1156.38 279.004L1155.96 281.996L1151.75 276.212L1158.82 277.233Z" fill="black"/>
</g>
<defs>
<clipPath id="clip0_111_888">
<rect width="1320" height="438" fill="white"/>
</clipPath>
</defs>
</svg>
