<svg width="34" height="32" viewBox="0 0 34 32" fill="none" xmlns="http://www.w3.org/2000/svg">
<path d="M1 24C1.5 24 2 24.5 2 25V31C2 31.5625 1.4375 32 0.9375 32C0.4375 32 0 31.5625 0 31V25C0 24.5 0.4375 24 1 24ZM9 18C9.5 18 10 18.5 10 19V31C10 31.5625 9.5 32 9 32C8.4375 32 8 31.5625 8 31V19C8 18.5 8.4375 18 9 18ZM17 12C17.5 12 18 12.5 18 13V31C18 31.5625 17.5 32 17 32C16.4375 32 16 31.5625 16 31V13C16 12.5 16.4375 12 17 12ZM25 6C25.5 6 26 6.5 26 7V31C26 31.5625 25.5 32 25 32C24.4375 32 24 31.5625 24 31V7C24 6.5 24.4375 6 25 6ZM33 0C33.5 0 34 0.5 34 1V31C34 31.5625 33.5 32 33 32C32.4375 32 32 31.5625 32 31V1C32 0.5 32.4375 0 33 0Z" fill="black"/>
</svg>
