<svg width="37" height="32" viewBox="0 0 37 32" fill="none" xmlns="http://www.w3.org/2000/svg">
<path d="M6 24.5C6.8125 24.5 7.5 25.1875 7.5 26C7.5 26.875 6.8125 27.5 6 27.5C5.125 27.5 4.5 26.875 4.5 26C4.5 25.1875 5.125 24.5 6 24.5ZM12 24.5C12.8125 24.5 13.5 25.1875 13.5 26C13.5 26.875 12.8125 27.5 12 27.5C11.125 27.5 10.5 26.875 10.5 26C10.5 25.1875 11.125 24.5 12 24.5ZM32 20C34.1875 20 36 21.8125 36 24V28C36 30.25 34.1875 32 32 32H4C1.75 32 0 30.25 0 28V24C0 21.8125 1.75 20 4 20H21V15C21 14.5 21.5 14 22 14C22.5 14 23 14.5 23 15V20H32ZM34 28V24C34 22.9375 33.0625 22 32 22H4C2.875 22 2 22.9375 2 24V28C2 29.125 2.875 30 4 30H32C33.0625 30 34 29.125 34 28ZM9.625 6.5C9.1875 6.875 8.5625 6.8125 8.1875 6.375C7.875 5.9375 7.875 5.3125 8.3125 5C12.125 1.8125 17 0 22 0C26.9375 0 31.8125 1.8125 35.625 5C36.0625 5.3125 36.0625 5.9375 35.75 6.375C35.5625 6.625 35.25 6.75 35 6.75C34.75 6.75 34.5 6.6875 34.3125 6.5C30.875 3.625 26.5 2 22 2C17.4375 2 13.0625 3.625 9.625 6.5ZM12.3125 9.5C15 7.25 18.4375 6 22 6C25.5 6 28.9375 7.25 31.625 9.5C32.0625 9.875 32.0625 10.5 31.75 10.9375C31.5625 11.1875 31.25 11.3125 31 11.3125C30.75 11.3125 30.5 11.1875 30.3125 11.0625C28 9.125 25 8 22 8C18.9375 8 15.9375 9.125 13.625 11.0625C13.1875 11.4375 12.5625 11.375 12.1875 10.9375C11.875 10.5 11.875 9.875 12.3125 9.5Z" fill="black"/>
</svg>
