<svg width="32" height="28" viewBox="0 0 32 28" fill="none" xmlns="http://www.w3.org/2000/svg">
<path d="M28 0C30.1875 0 32 1.8125 32 4V8C32 10.25 30.1875 12 28 12H4C1.75 12 0 10.25 0 8V4C0 1.8125 1.75 0 4 0H28ZM30 8V4C30 2.9375 29.0625 2 28 2H4C2.875 2 2 2.9375 2 4V8C2 9.125 2.875 10 4 10H28C29.0625 10 30 9.125 30 8ZM26 4.5C26.8125 4.5 27.5 5.1875 27.5 6C27.5 6.875 26.8125 7.5 26 7.5C25.125 7.5 24.5 6.875 24.5 6C24.5 5.1875 25.125 4.5 26 4.5ZM20 4.5C20.8125 4.5 21.5 5.1875 21.5 6C21.5 6.875 20.8125 7.5 20 7.5C19.125 7.5 18.5 6.875 18.5 6C18.5 5.1875 19.125 4.5 20 4.5ZM28 16C30.1875 16 32 17.8125 32 20V24C32 26.25 30.1875 28 28 28H4C1.75 28 0 26.25 0 24V20C0 17.8125 1.75 16 4 16H28ZM30 24V20C30 18.9375 29.0625 18 28 18H4C2.875 18 2 18.9375 2 20V24C2 25.125 2.875 26 4 26H28C29.0625 26 30 25.125 30 24ZM26 20.5C26.8125 20.5 27.5 21.1875 27.5 22C27.5 22.875 26.8125 23.5 26 23.5C25.125 23.5 24.5 22.875 24.5 22C24.5 21.1875 25.125 20.5 26 20.5ZM20 20.5C20.8125 20.5 21.5 21.1875 21.5 22C21.5 22.875 20.8125 23.5 20 23.5C19.125 23.5 18.5 22.875 18.5 22C18.5 21.1875 19.125 20.5 20 20.5Z" fill="black"/>
</svg>
