<svg width="34" height="33" viewBox="0 0 34 33" fill="none" xmlns="http://www.w3.org/2000/svg">
<path d="M30.0625 11.3125L19.9375 21.4375C21.375 25 21.1875 29.0625 19.3125 32.5625C19.1875 32.875 18.8125 33 18.5 33C18.25 33 18 32.9375 17.8125 32.75L10.25 25.1875L8.6875 26.75C8.875 27.125 9 27.5625 9 28C9 29.6875 7.625 31 6 31C4.3125 31 3 29.6875 3 28C3 26.375 4.3125 25 6 25C6.4375 25 6.875 25.125 7.25 25.3125L8.8125 23.75L1.25 16.1875C0.8125 15.75 0.875 14.9375 1.5 14.625C3.4375 13.5625 5.5625 13 7.75 13C9.375 13 11.0625 13.3125 12.625 13.9375L22.6875 3.9375C23.8125 2.75 25.8125 2.75 26.9375 3.9375L30.0625 7.0625C31.25 8.25 31.25 10.125 30.0625 11.3125ZM5.9375 29C6.5 29 6.9375 28.5 6.9375 28C6.9375 27.4375 6.4375 27 5.9375 27C5.5 27 5 27.4375 5 28C5 28.5 5.4375 29 5.9375 29ZM18.1875 30.3125C19.8125 26.1875 18.875 21.5 15.6875 18.3125C13.5625 16.1875 10.75 15 7.75 15C6.375 15 4.9375 15.3125 3.6875 15.8125L18.1875 30.3125ZM19.0625 19.5L28.6875 9.875C29.0625 9.5 29.0625 8.875 28.6875 8.5L25.5 5.3125C25.125 4.9375 24.5 4.9375 24.125 5.3125L14.5 14.875C15.4375 15.4375 16.3125 16.125 17.0625 16.875C17.875 17.6875 18.5 18.5625 19.0625 19.5ZM32.125 16.875C33.25 18 33.25 19.875 32.125 21.0625L27 26.1875C26.4375 26.75 25.6875 27 24.875 27C24.125 27 23.375 26.75 22.8125 26.1875C22.4375 25.75 22.4375 25.125 22.8125 24.75C23.1875 24.375 23.8125 24.375 24.1875 24.75C24.5625 25.125 25.1875 25.125 25.5625 24.75L30.6875 19.625C30.875 19.4375 31 19.25 31 18.9375C31 18.6875 30.875 18.4375 30.6875 18.25L29.25 16.6875C28.875 16.3125 28.875 15.6875 29.3125 15.3125C29.6875 14.9375 30.3125 14.9375 30.6875 15.375L32.125 16.875ZM8.5625 11.5C8.3125 11.5 8.0625 11.375 7.8125 11.1875C6.6875 10.0625 6.6875 8.1875 7.8125 7L12.9375 1.875C14.0625 0.75 16 0.75 17.125 1.875L18.625 3.3125C19.0625 3.6875 19.0625 4.3125 18.6875 4.6875C18.3125 5.125 17.6875 5.125 17.3125 4.75L15.75 3.3125C15.3125 2.9375 14.75 2.9375 14.375 3.3125L9.25 8.4375C9.0625 8.625 9 8.8125 9 9.125C9 9.375 9.0625 9.625 9.25 9.8125C9.625 10.1875 9.625 10.8125 9.25 11.1875C9.0625 11.375 8.8125 11.5 8.5625 11.5Z" fill="black"/>
</svg>
