<svg width="32" height="30" viewBox="0 0 32 30" fill="none" xmlns="http://www.w3.org/2000/svg">
<path d="M13 26C13.5 26 14 26.5 14 27C14 27.5625 13.5 28 13 28H4C1.75 28 0 26.25 0 24V4C0 1.8125 1.75 0 4 0H24C26.1875 0 28 1.8125 28 4V11C28 11.5625 27.5 12 27 12C26.4375 12 26 11.5625 26 11V4C26 2.9375 25.0625 2 24 2H4C2.875 2 2 2.9375 2 4V24C2 25.125 2.875 26 4 26H13ZM23 14C22.4375 14 22 13.5625 22 13V6H15V11.1875C16.125 11.625 17 12.75 17 14C17 15.875 15.25 17.375 13.3125 16.9375C12.1875 16.6875 11.25 15.8125 11 14.625C10.75 13.0625 11.625 11.6875 13 11.1875V5C13 4.5 13.4375 4 14 4H22C23.0625 4 24 4.9375 24 6V13C24 13.5625 23.5 14 23 14ZM14 15C14.5 15 15 14.5625 15 14C15 13.5 14.5 13 14 13C13.4375 13 13 13.5 13 14C13 14.5625 13.4375 15 14 15ZM30 26C31.0625 26 32 26.9375 32 28C32 29.125 31.0625 30 30 30C28.875 30 28 29.125 28 28C28 26.9375 28.875 26 30 26ZM31 20C31.5 20 32 20.5 32 21C32 21.5625 31.5 22 31 22C27.125 22 24 25.1875 24 29C24 29.5625 23.5 30 23 30C22.4375 30 22 29.5625 22 29C22 24.0625 26 20 31 20ZM31 17C24.375 17 19 22.4375 19 29C19 29.5625 18.5 30 18 30C17.4375 30 17 29.5625 17 29C17 21.3125 23.25 15 31 15C31.5 15 32 15.5 32 16C32 16.5625 31.5 17 31 17ZM15 22C15.5 22 16 22.5 16 23C16 23.5625 15.5 24 15 24H6C4.875 24 4 23.125 4 22V6C4 4.9375 4.875 4 6 4H9C9.5625 4 10.0625 4.5625 9.9375 5.1875C9.875 5.6875 9.4375 6 8.9375 6H6V22H15Z" fill="black"/>
</svg>
