<svg width="36" height="32" viewBox="0 0 36 32" fill="none" xmlns="http://www.w3.org/2000/svg">
<path d="M34.875 20.875C35.5625 21.5625 36 22.5 35.875 23.4375C35.875 24.4375 35.4375 25.375 34.6875 25.9375L28.375 31C27.5 31.6875 26.5 32 25.4375 32H0.9375C0.4375 32 0 31.5 0 31C0 30.4375 0.4375 30 1 30H25.4375C26.0625 30 26.625 29.75 27.125 29.375L33.4375 24.375C34.0625 23.875 34.125 22.875 33.4375 22.3125C33.25 22.125 32.9375 22 32.625 22C32.3125 22 31.9375 22.125 31.6875 22.3125L27.8125 25.375C27.375 25.75 26.75 26 26.1875 26H14.9375C14.375 26 13.9375 25.5 13.9375 25C13.9375 24.4375 14.375 24 14.9375 24H20.4375C21.25 24 21.9375 23.3125 21.9375 22.5C21.9375 21.625 21.25 21 20.4375 21H11.25C10.375 21 9.5625 21.25 8.8125 21.75L5.9375 24H0.9375C0.4375 24 0 23.5625 0 23C0 22.5 0.4375 22 1 22H5.3125L7.6875 20.25C8.8125 19.4375 10 19 11.3125 19H20.3125C22.0625 19 23.6875 20.25 23.9375 22C24.0625 22.75 23.9375 23.4375 23.625 24H26.25C26.375 24 26.5625 24 26.6875 23.875L30.5 20.8125C31.125 20.3125 31.875 20.0625 32.6875 20.0625C33.5 20.0625 34.25 20.3125 34.875 20.875ZM17.1875 11.9375C18.6875 12.1875 20.25 11.9375 20.4375 10.875C20.625 10 20.0625 9.625 17.6875 9L17.25 8.875C15.875 8.5 13 7.6875 13.5 4.8125C13.8125 3.3125 15.125 2.3125 16.9375 2.0625V1C16.9375 0.5 17.4375 0 18 0C18.5 0 19 0.5 19 1V2.125C19.5 2.1875 20.125 2.375 20.9375 2.625C21.4375 2.8125 21.75 3.375 21.5625 3.875C21.375 4.375 20.8125 4.6875 20.3125 4.5C19.625 4.3125 19.125 4.1875 18.6875 4.125C17.25 3.875 15.6875 4.125 15.5 5.1875C15.375 5.9375 15.625 6.3125 17.75 6.9375L18.25 7.0625C20.125 7.5625 22.9375 8.3125 22.4375 11.25C22.125 12.75 20.8125 13.75 18.9375 14V15C18.9375 15.5625 18.5 16 18 16C17.4375 16 16.9375 15.5625 16.9375 15V13.9375C16.4375 13.875 16 13.75 14.125 13.125C13.625 12.9375 13.375 12.375 13.5 11.875C13.6875 11.375 14.25 11.0625 14.8125 11.25C16.375 11.8125 16.75 11.875 17.1875 11.9375Z" fill="black"/>
</svg>
